<mxfile host="app.diagrams.net" modified="2021-04-19T12:12:13.905Z" agent="5.0 (Windows NT 10.0; Win64; x64) AppleWebKit/537.36 (KHTML, like Gecko) Chrome/89.0.4389.128 Safari/537.36 Edg/89.0.774.77" etag="bDUqMfRZnR87eF7DkoOx" version="14.6.0" type="github">
  <diagram id="46toKyusVM80udTAvC4r" name="Page-1">
    <mxGraphModel dx="792" dy="492" grid="1" gridSize="10" guides="1" tooltips="1" connect="1" arrows="1" fold="1" page="1" pageScale="1" pageWidth="850" pageHeight="1100" math="0" shadow="0">
      <root>
        <mxCell id="0" />
        <mxCell id="1" parent="0" />
        <mxCell id="hjvG_84Kh2OcHXy9fUwH-1" value="" style="ellipse;whiteSpace=wrap;html=1;aspect=fixed;" vertex="1" parent="1">
          <mxGeometry x="190" y="190" width="20" height="20" as="geometry" />
        </mxCell>
        <mxCell id="hjvG_84Kh2OcHXy9fUwH-2" value="" style="ellipse;whiteSpace=wrap;html=1;aspect=fixed;" vertex="1" parent="1">
          <mxGeometry x="190" y="230" width="20" height="20" as="geometry" />
        </mxCell>
        <mxCell id="hjvG_84Kh2OcHXy9fUwH-3" value="" style="ellipse;whiteSpace=wrap;html=1;aspect=fixed;" vertex="1" parent="1">
          <mxGeometry x="190" y="290" width="20" height="20" as="geometry" />
        </mxCell>
        <mxCell id="hjvG_84Kh2OcHXy9fUwH-4" value="" style="ellipse;whiteSpace=wrap;html=1;aspect=fixed;" vertex="1" parent="1">
          <mxGeometry x="190" y="330" width="20" height="20" as="geometry" />
        </mxCell>
        <mxCell id="hjvG_84Kh2OcHXy9fUwH-5" value="" style="endArrow=none;dashed=1;html=1;dashPattern=1 3;strokeWidth=2;entryX=0.5;entryY=1;entryDx=0;entryDy=0;exitX=0.5;exitY=0;exitDx=0;exitDy=0;" edge="1" parent="1" source="hjvG_84Kh2OcHXy9fUwH-3" target="hjvG_84Kh2OcHXy9fUwH-2">
          <mxGeometry width="50" height="50" relative="1" as="geometry">
            <mxPoint x="200" y="280" as="sourcePoint" />
            <mxPoint x="330" y="210" as="targetPoint" />
          </mxGeometry>
        </mxCell>
        <mxCell id="hjvG_84Kh2OcHXy9fUwH-6" value="输入图片&lt;br&gt;32x32x1" style="text;html=1;align=center;verticalAlign=middle;resizable=0;points=[];autosize=1;strokeColor=none;" vertex="1" parent="1">
          <mxGeometry x="90" y="290" width="60" height="30" as="geometry" />
        </mxCell>
        <mxCell id="hjvG_84Kh2OcHXy9fUwH-7" value="" style="ellipse;whiteSpace=wrap;html=1;aspect=fixed;" vertex="1" parent="1">
          <mxGeometry x="190" y="150" width="20" height="20" as="geometry" />
        </mxCell>
        <mxCell id="hjvG_84Kh2OcHXy9fUwH-8" value="" style="ellipse;whiteSpace=wrap;html=1;aspect=fixed;" vertex="1" parent="1">
          <mxGeometry x="190" y="370" width="20" height="20" as="geometry" />
        </mxCell>
        <mxCell id="hjvG_84Kh2OcHXy9fUwH-15" value="" style="ellipse;whiteSpace=wrap;html=1;aspect=fixed;" vertex="1" parent="1">
          <mxGeometry x="270" y="190" width="20" height="20" as="geometry" />
        </mxCell>
        <mxCell id="hjvG_84Kh2OcHXy9fUwH-16" value="" style="ellipse;whiteSpace=wrap;html=1;aspect=fixed;" vertex="1" parent="1">
          <mxGeometry x="270" y="230" width="20" height="20" as="geometry" />
        </mxCell>
        <mxCell id="hjvG_84Kh2OcHXy9fUwH-17" value="" style="ellipse;whiteSpace=wrap;html=1;aspect=fixed;" vertex="1" parent="1">
          <mxGeometry x="270" y="290" width="20" height="20" as="geometry" />
        </mxCell>
        <mxCell id="hjvG_84Kh2OcHXy9fUwH-18" value="" style="ellipse;whiteSpace=wrap;html=1;aspect=fixed;" vertex="1" parent="1">
          <mxGeometry x="270" y="330" width="20" height="20" as="geometry" />
        </mxCell>
        <mxCell id="hjvG_84Kh2OcHXy9fUwH-19" value="" style="endArrow=none;dashed=1;html=1;dashPattern=1 3;strokeWidth=2;exitX=0.5;exitY=0;exitDx=0;exitDy=0;entryX=0.5;entryY=1;entryDx=0;entryDy=0;" edge="1" source="hjvG_84Kh2OcHXy9fUwH-17" target="hjvG_84Kh2OcHXy9fUwH-16" parent="1">
          <mxGeometry width="50" height="50" relative="1" as="geometry">
            <mxPoint x="280" y="280" as="sourcePoint" />
            <mxPoint x="320" y="280" as="targetPoint" />
          </mxGeometry>
        </mxCell>
        <mxCell id="hjvG_84Kh2OcHXy9fUwH-20" value="" style="ellipse;whiteSpace=wrap;html=1;aspect=fixed;" vertex="1" parent="1">
          <mxGeometry x="350" y="200" width="20" height="20" as="geometry" />
        </mxCell>
        <mxCell id="hjvG_84Kh2OcHXy9fUwH-21" value="" style="ellipse;whiteSpace=wrap;html=1;aspect=fixed;" vertex="1" parent="1">
          <mxGeometry x="350" y="240" width="20" height="20" as="geometry" />
        </mxCell>
        <mxCell id="hjvG_84Kh2OcHXy9fUwH-22" value="" style="ellipse;whiteSpace=wrap;html=1;aspect=fixed;" vertex="1" parent="1">
          <mxGeometry x="350" y="280" width="20" height="20" as="geometry" />
        </mxCell>
        <mxCell id="hjvG_84Kh2OcHXy9fUwH-23" value="" style="ellipse;whiteSpace=wrap;html=1;aspect=fixed;" vertex="1" parent="1">
          <mxGeometry x="350" y="320" width="20" height="20" as="geometry" />
        </mxCell>
        <mxCell id="hjvG_84Kh2OcHXy9fUwH-24" value="" style="endArrow=none;dashed=1;html=1;dashPattern=1 3;strokeWidth=2;entryX=0.5;entryY=1;entryDx=0;entryDy=0;exitX=0.5;exitY=0;exitDx=0;exitDy=0;" edge="1" source="hjvG_84Kh2OcHXy9fUwH-22" target="hjvG_84Kh2OcHXy9fUwH-21" parent="1">
          <mxGeometry width="50" height="50" relative="1" as="geometry">
            <mxPoint x="360" y="280" as="sourcePoint" />
            <mxPoint x="490" y="210" as="targetPoint" />
          </mxGeometry>
        </mxCell>
        <mxCell id="hjvG_84Kh2OcHXy9fUwH-25" value="" style="ellipse;whiteSpace=wrap;html=1;aspect=fixed;" vertex="1" parent="1">
          <mxGeometry x="425" y="210" width="20" height="20" as="geometry" />
        </mxCell>
        <mxCell id="hjvG_84Kh2OcHXy9fUwH-26" value="" style="ellipse;whiteSpace=wrap;html=1;aspect=fixed;" vertex="1" parent="1">
          <mxGeometry x="425" y="240" width="20" height="20" as="geometry" />
        </mxCell>
        <mxCell id="hjvG_84Kh2OcHXy9fUwH-27" value="" style="ellipse;whiteSpace=wrap;html=1;aspect=fixed;" vertex="1" parent="1">
          <mxGeometry x="425" y="270" width="20" height="20" as="geometry" />
        </mxCell>
        <mxCell id="hjvG_84Kh2OcHXy9fUwH-28" value="" style="ellipse;whiteSpace=wrap;html=1;aspect=fixed;" vertex="1" parent="1">
          <mxGeometry x="425" y="300" width="20" height="20" as="geometry" />
        </mxCell>
        <mxCell id="hjvG_84Kh2OcHXy9fUwH-29" value="" style="endArrow=none;dashed=1;html=1;dashPattern=1 3;strokeWidth=2;entryX=0.5;entryY=1;entryDx=0;entryDy=0;exitX=0.5;exitY=0;exitDx=0;exitDy=0;" edge="1" source="hjvG_84Kh2OcHXy9fUwH-27" target="hjvG_84Kh2OcHXy9fUwH-26" parent="1">
          <mxGeometry width="50" height="50" relative="1" as="geometry">
            <mxPoint x="435" y="280" as="sourcePoint" />
            <mxPoint x="565" y="210" as="targetPoint" />
          </mxGeometry>
        </mxCell>
        <mxCell id="hjvG_84Kh2OcHXy9fUwH-31" value="" style="endArrow=classic;html=1;exitX=1;exitY=1;exitDx=0;exitDy=0;entryX=0;entryY=0.5;entryDx=0;entryDy=0;" edge="1" parent="1" source="hjvG_84Kh2OcHXy9fUwH-7" target="hjvG_84Kh2OcHXy9fUwH-15">
          <mxGeometry width="50" height="50" relative="1" as="geometry">
            <mxPoint x="280" y="290" as="sourcePoint" />
            <mxPoint x="330" y="240" as="targetPoint" />
          </mxGeometry>
        </mxCell>
        <mxCell id="hjvG_84Kh2OcHXy9fUwH-36" value="" style="endArrow=classic;html=1;exitX=1;exitY=1;exitDx=0;exitDy=0;entryX=0;entryY=0.5;entryDx=0;entryDy=0;" edge="1" parent="1" source="hjvG_84Kh2OcHXy9fUwH-1" target="hjvG_84Kh2OcHXy9fUwH-16">
          <mxGeometry width="50" height="50" relative="1" as="geometry">
            <mxPoint x="280" y="290" as="sourcePoint" />
            <mxPoint x="330" y="240" as="targetPoint" />
          </mxGeometry>
        </mxCell>
        <mxCell id="hjvG_84Kh2OcHXy9fUwH-37" value="" style="endArrow=classic;html=1;exitX=1;exitY=1;exitDx=0;exitDy=0;entryX=0;entryY=0.5;entryDx=0;entryDy=0;" edge="1" parent="1" source="hjvG_84Kh2OcHXy9fUwH-7" target="hjvG_84Kh2OcHXy9fUwH-16">
          <mxGeometry width="50" height="50" relative="1" as="geometry">
            <mxPoint x="280" y="290" as="sourcePoint" />
            <mxPoint x="330" y="240" as="targetPoint" />
          </mxGeometry>
        </mxCell>
        <mxCell id="hjvG_84Kh2OcHXy9fUwH-38" value="" style="endArrow=classic;html=1;entryX=0;entryY=0.5;entryDx=0;entryDy=0;" edge="1" parent="1" target="hjvG_84Kh2OcHXy9fUwH-17">
          <mxGeometry width="50" height="50" relative="1" as="geometry">
            <mxPoint x="210" y="170" as="sourcePoint" />
            <mxPoint x="340" y="249.9999999999999" as="targetPoint" />
          </mxGeometry>
        </mxCell>
        <mxCell id="hjvG_84Kh2OcHXy9fUwH-39" value="" style="endArrow=classic;html=1;exitX=1;exitY=1;exitDx=0;exitDy=0;entryX=0;entryY=0.5;entryDx=0;entryDy=0;" edge="1" parent="1" source="hjvG_84Kh2OcHXy9fUwH-7" target="hjvG_84Kh2OcHXy9fUwH-18">
          <mxGeometry width="50" height="50" relative="1" as="geometry">
            <mxPoint x="300" y="309.9999999999999" as="sourcePoint" />
            <mxPoint x="350" y="259.9999999999999" as="targetPoint" />
          </mxGeometry>
        </mxCell>
        <mxCell id="hjvG_84Kh2OcHXy9fUwH-40" value="" style="endArrow=classic;html=1;exitX=1;exitY=1;exitDx=0;exitDy=0;" edge="1" parent="1" source="hjvG_84Kh2OcHXy9fUwH-1">
          <mxGeometry width="50" height="50" relative="1" as="geometry">
            <mxPoint x="210" y="210" as="sourcePoint" />
            <mxPoint x="270" y="300" as="targetPoint" />
          </mxGeometry>
        </mxCell>
        <mxCell id="hjvG_84Kh2OcHXy9fUwH-41" value="" style="endArrow=classic;html=1;exitX=1;exitY=1;exitDx=0;exitDy=0;" edge="1" parent="1" source="hjvG_84Kh2OcHXy9fUwH-1">
          <mxGeometry width="50" height="50" relative="1" as="geometry">
            <mxPoint x="320" y="329.9999999999999" as="sourcePoint" />
            <mxPoint x="270" y="340" as="targetPoint" />
          </mxGeometry>
        </mxCell>
        <mxCell id="hjvG_84Kh2OcHXy9fUwH-42" value="" style="endArrow=classic;html=1;exitX=1;exitY=0.5;exitDx=0;exitDy=0;entryX=0;entryY=0.5;entryDx=0;entryDy=0;" edge="1" parent="1" source="hjvG_84Kh2OcHXy9fUwH-2" target="hjvG_84Kh2OcHXy9fUwH-15">
          <mxGeometry width="50" height="50" relative="1" as="geometry">
            <mxPoint x="330" y="339.9999999999999" as="sourcePoint" />
            <mxPoint x="380" y="289.9999999999999" as="targetPoint" />
          </mxGeometry>
        </mxCell>
        <mxCell id="hjvG_84Kh2OcHXy9fUwH-43" value="" style="endArrow=classic;html=1;exitX=1;exitY=0.5;exitDx=0;exitDy=0;entryX=0;entryY=0.5;entryDx=0;entryDy=0;" edge="1" parent="1" source="hjvG_84Kh2OcHXy9fUwH-2" target="hjvG_84Kh2OcHXy9fUwH-16">
          <mxGeometry width="50" height="50" relative="1" as="geometry">
            <mxPoint x="200" y="280" as="sourcePoint" />
            <mxPoint x="390" y="299.9999999999999" as="targetPoint" />
          </mxGeometry>
        </mxCell>
        <mxCell id="hjvG_84Kh2OcHXy9fUwH-44" value="" style="endArrow=classic;html=1;exitX=1;exitY=0.5;exitDx=0;exitDy=0;entryX=0;entryY=0.5;entryDx=0;entryDy=0;" edge="1" parent="1" source="hjvG_84Kh2OcHXy9fUwH-2" target="hjvG_84Kh2OcHXy9fUwH-18">
          <mxGeometry width="50" height="50" relative="1" as="geometry">
            <mxPoint x="310" y="365" as="sourcePoint" />
            <mxPoint x="360" y="315" as="targetPoint" />
          </mxGeometry>
        </mxCell>
        <mxCell id="hjvG_84Kh2OcHXy9fUwH-45" value="" style="endArrow=classic;html=1;exitX=1;exitY=0.5;exitDx=0;exitDy=0;entryX=0;entryY=0.5;entryDx=0;entryDy=0;" edge="1" parent="1" source="hjvG_84Kh2OcHXy9fUwH-2" target="hjvG_84Kh2OcHXy9fUwH-17">
          <mxGeometry width="50" height="50" relative="1" as="geometry">
            <mxPoint x="290" y="299.9999999999999" as="sourcePoint" />
            <mxPoint x="340" y="249.9999999999999" as="targetPoint" />
          </mxGeometry>
        </mxCell>
        <mxCell id="hjvG_84Kh2OcHXy9fUwH-48" value="" style="endArrow=none;dashed=1;html=1;dashPattern=1 3;strokeWidth=2;" edge="1" parent="1">
          <mxGeometry width="50" height="50" relative="1" as="geometry">
            <mxPoint x="240" y="350" as="sourcePoint" />
            <mxPoint x="240" y="320" as="targetPoint" />
          </mxGeometry>
        </mxCell>
        <mxCell id="hjvG_84Kh2OcHXy9fUwH-49" value="" style="shape=image;verticalLabelPosition=bottom;labelBackgroundColor=#ffffff;verticalAlign=top;aspect=fixed;imageAspect=0;image=data:image/png,iVBORw0KGgoAAAANSUhEUgAAAaYAAAGrCAYAAACL7zPdAAAgAElEQVR4AezdB7h8VXU+frAX7ApGNMUSKyYqYEEwiAE1SlFBBRUVVLqCIgjSLUgoIk2qqKigIolSlKISFRSMBSwYG2BLDIlRFAua/X8+O791/5vN3Pu9bb537sy6zzPPnnLmzDnr7H3e+671rrVWKfmXFkgLpAXSAmmBEbLAKiN0LHkoaYG0QFogLZAWKAlMOQnSAmmBtEBaYKQskMA0UpcjDyYtkBZIC6QFEphyDqQF0gJpgbTASFkggWmkLkceTFogLZAWSAskMOUcSAukBdICaYGRskAC00hdjjyYtEBaIC2QFkhgyjmQFkgLpAXSAiNlgQSmkboceTBpgbRAWiAtsMr//u//lkGPP/3pT+WPf/xjufnmm+sYz9vX3ouH96f7LLbJ8f+3V9oibZFzIOfAcp0Dcb+f6Z4/6DO4Mghv4r2A5FX6Db22w9/97nflpptuKjfeeGP59a9/XX7zm9/UsX3t8/b9+Mz2+Ugb5BzIOZBzYDLmABxoH/119xm8gC095gQoGeOvAlO7IQS/4YYbyuc///lyzjnnlA984AP18cEPfrCOZ5xxxtR7PvN+fBbb5vh/Nks7pB1yDuQcmLQ5EHgQWOH12WefXS699NLy85//vHrZWjAa9PxWwATRvvnNb5Y99tijbLjhhmWttdYqj3rUo27xeOQjH1ke8YhH1MejH/3ouo3tHvOYxxSv85E2yDmQcyDnwPjOAff6eMCHwAPY4LrHe0bYsMEGG5TddtutXHXVVeUPf/jDjO48QHWrGJMvffWrXy3bbrttefjDH17uec97lrvf/e63eNztbncrq622Wn34zDb3uMc9brFN/518fUsbpj3SHjkHcg4s5zngnh/3/cAEY5yT5x7w4SEPeUjZeuuty5VXXll+//vfz+jOuxUwcekBJl/eaqutypprrlluc5vb1Mftb3/7cqc73anc+c53vsXjLne5S/Ho38/Xt7RT2iPtkXMg58C4zYG4/7cY4DmsgBmBH6uvvnrZfPPNy+WXX171CxE+iphSjOHWuwVjaoFpyy23LA94wAPqju9973tXqvb0pz+9PP/5zy8+83jBC15Qnve855Utttiivu+1z/ORNsg5kHMg58D4zoG418e9v8UE1x1WcOvd5z73qRgCmDbbbLPZA1OLVNMB04Mf/ODy7Gc/u+y7777l5JNPLqeddlp9nHLKKeWkk04q7373u+v7p556avFePtIGOQdyDuQcGN854F4PC0488cSpez9ciPf322+/summm5aHPvSh5ba3vW3pgQkzGvQ3xZjiw3iDK+/LX/5yeeELX1ge+MAHVrR7/OMfX3bddddy3nnnleuvv778+Mc/rg/Pr7vuunLttdfe4v34PMf/s1PaIe2QcyDnwLjNgR/96Ef1/g8HPI/z8/qCCy4ou+++e1lnnXXK7W53u3L/+9+/eta++MUvVlferIEJQNmYKq8Hpic96Ulln332qbEnrKp/kJh7L8AtwC7HtEBaIC2QFhgvC7jP9xjQv/ev//qv5YADDijrrbdeZUxrrLHGFDARP9jeX2BGP96iJJEPA5jaGNMTn/jE8qY3vWkKmGwDjNqdxYF6L//SAmmBtEBaYDwtEDjRExK44AELvvKVr0wBEwHE/e53vxpjwph6YGqxIzBlRmCiyuMfBEx77bVXueKKKyoY9TvqX4/n5cizSgukBdICaQHg4Z4PmFpwiveMGNP+++8/xZhClde78mJfvuN5/E0LTCEX5x9cd911yxvf+MYpYApUi53GwcVOc0wLpAXSAmmB8bYAMAmG1GKC58JBBBBPecpTaoyJK6+Vi9vGX2DIrIEpXHkY00zAFDuOHxrvS5FnlxZIC6QF0gIsEPf+ABWv4xGMCTBx5QVjijymwIt+H2HZaRlTAJOdAiauPIm38RcHMGiMbXJMC6QF0gJpgfG2wCAMmAswtd8PS00LTFx5kWCbwBTmyjEtkBZIC6QFWgu0wBLPpwOmQTGm+I4x/mYEpihJlMAU5soxLZAWSAukBXoLtODieQ9Ms5WLx34TmMISOaYF0gJpgbTAvCyQwDQvs+WX0gJpgbRAWmBYFkhgGpZlc79pgbRAWiAtMC8LJDDNy2z5pbRAWiAtkBYYlgUSmIZl2dxvWiAtkBZIC8zLAglM8zJbfiktkBZIC6QFhmWBBKZhWTb3mxZIC6QF0gLzskAC07zMll9KC6QF0gJpgWFZIIFpWJbN/aYF0gJpgbTAvCyQwDQvs+WX0gJpgbRAWmBYFkhgGpZlc79pgbRAWiAtMC8LJDDNy2z5pbRAWiAtkBYYlgUSmIZl2dxvWiAtkBZIC8zLAglM8zJbfiktkBZIC6QFhmWBBKZhWTb3mxZIC6QF0gLzskAC07zMll9KC6QF0gJpgWFZIIFpWJbN/aYF0gJpgbTAvCyQwDQvs+WX0gJpgbRAWmBYFkhgGpZlc79pgbRAWiAtMC8LJDDNy2z5pbRAWiAtkBYYlgUSmIZl2dxvWiAtkBZIC8zLAglM8zJbfiktkBZIC6QFhmWBBKZhWTb3mxZIC6QF0gLzskAC07zMll9KC6QF0gJpgWFZIIFpWJbN/aYF0gJpgbTAvCyQwDQvs+WX0gJpgbRAWmBYFkhgGpZlc79pgbRAWiAtMC8LJDDNy2z5pbRAWiAtkBYYlgUSmIZl2dxvWiAtkBZIC8zLAglM8zJbfiktkBZIC6QFhmWBBKZhWTb3mxZIC6QF0gLzskAC07zMll9KC6QF0gJpgWFZIIFpWJbN/aYF0gJpgbTAvCyQwDQvs+WX0gJpgbRAWmBYFkhgGpZlc79pgbRAWiAtMC8LJDDNy2z5pbRAWiAtkBYYlgUSmIZl2dxvWiAtkBZIC8zLAglM8zJbfiktkBZIC6QFhmWBBKZhWTb3mxZIC6QF0gLzskAC07zMll8aRQv0k3nQ6zjuQZ8t9nt/+tOfykyPxf692e4vbJBjWmBULdDP5X/9138t+++/f3nKU55SbnOb25Q11lijbLHFFuWLX/xi+f3vf19s76//XpzfKvEkNrr55pvLl7/85bLVVluVNddcs+503XXXLXvttVe58sorpzbvd9i+ntoon6QFZrBAO2emex5fH/R5CyI+j9d//OMfi0e8js+8Z37P5vGHP/yh9A/fi323+4j3Yozt/H68F8fidTwfdE6D3gsb5JgWGFUL9PM2gWlUr1Qe1wot0E/mQa9jJz6LG3rc8FtwCBDx39jvfve78tvf/vYWj5tuuqn85je/Kb/+9a+nHjfeeGOJx69+9avyy1/+curxP//zP6V9xGe26x+xj3b0O37P73o4Hsfl4RgdbwtgcU7G9lwH2aR9L+yTY1pgKS3QzknPE5iW8mrkby/IAv1kHvQ6fsBnAUxYhxt7C0IBPMABiACVX/ziF+W///u/y3/913+VG264ofznf/5n+fnPf17+4z/+oz7+/d//vfzsZz8rP/3pT8tPfvKT8uMf/7g+fvSjHxWP66+/fuoR78U27ei7HvZjfx5+w2/5XcfgWByTY3OMQAtYOYcWYINhtWOA1Uz2CTvlmBZYCgv0czOBaSmuQv7mUCzQT+72dTAKN3GghHkAI8wEg3HTBwCAACAE4AAQoHLdddeVH/7wh+X73/9++d73vle++93vlu985zvl29/+dvnWt75VvvGNb5Srr766XHXVVeXrX/96+drXvnaLh/c9bONh+3h885vfrPuwr2uuuabu12/84Ac/qL/r94EWIHRsgNLxBkD1TCrYXwBW6/4LcA7bDOVC5E7TAnO0QMzHGBOY5mjA3Hy0LRATux/dkFtQwjgAEibiRu+G78aPuWA6AUL/9m//VsECeAAUoPOVr3ylxlGvuOKKGoy97LLLyuc///ly6aWXls985jPlkksuqY+LL764jp/+9KfLZz/72fq5bf7lX/6lPj73uc/V733hC18o9nH55ZeXL33pSzUW+9WvfrUCGdADgIDKMQVIOV5A6hxal98gkGoBKkAq7DPaVzOPblIsEPMxxgSmSbnyE3KeMbH7MYCJ6wtTwjaAEvdcABJWhKUAI4AAiDAfiwQIAY4WgADPhRdeWC644IJy7rnnln/+538uH/vYx8pHP/rR8pGPfKR8+MMfrqPXZ599dv3snHPOKf/0T/9Ut/34xz9ePvGJT5TzzjuvnH/++XU/9gfYgBew8ruA0LFgVADq2muvrS5D7r4Ap2BPEY+KmFTEo7AoABXAxB5slH9pgVGwQL9eE5hG4arkMSyaBfoJHq8DmDAK7juuMG47LjssBBvhnnPz53IDBtgLNoPlYD2DQAgAfehDHypnnHFGOf3008upp55aTjrppHLiiSeWd7/73XX0+uSTTy6nnHJKOe2008p73vOeuu373ve+8v73v7984AMfKB/84AfrfuwPeAG6T33qU/V3MSvHgkVx/2FQAJSbEXMCsBF7akUTLTi1sagAp7DNohk/d5QWmKcFYi7GmMA0T0Pm10bTAjGx+zGAyc2a+4v7DlMCSm7ybvZu+m7+WApmxC0HjLCZYENYEBABKgAG4ACgY489thx11FHl8MMPL4ceemh529veVt761reWt7/97fX1O97xjnLYYYfVz4888si67dFHH12OOeaY+t3jjz++nHDCCXV/AM5vYFlYFYByLBiUVAzAKRYFTMWeAOwgcAqBBDAO5pSsaTTn7aQfVb9eE5gmfUaMwfm3kzpOp33P8wAmri7sggtPPMnNHShxlWFJEvi40bjpABK3GxYTYIQRYUOA6J3vfOcUEL3lLW8pBxxwQNlnn33KG9/4xvKGN7yhvP71ry977rlnfb333nvXz/bdd9+y33771W0POuigcsghh1QAA2QA7Ygjjijvete76m+8973vrSwKg3IsWBsGB5wcL4YnHsalB2gDnAAv1x72FK69FpwwppY1hc1yTAsslQX69ZrAtFRXIn930SzQTurYafteC0xYhBs4tiSm5OaOKVkIYkjcdhdddFF1pWEs3HQAghsOqwFG//iP/1iZ0MEHH1xB5k1velMFote+9rVlxx13LNtvv3155StfWV7xilfU8VWvelV5zWteUz/beeedy6677lpe97rXlT322KN+D5BJQLcf4IZpAajjjjuuuga5+hxLgBPm5Hi5HbE9rCnEEM6Nm3I6cOpjTWyTf2mBpbZAv14TmJb6iuTvL9gC7aSOnQUYRZA/GBMWgV1gS27qbu7cd5gSUOK6I0jAksR/MKQWkFpmhBXttttuU2D0spe9rLzoRS8qz3ve88rmm29eNttsszo+//nPL1tuuWX97MUvfnF5yUteUmwLuLbbbrvSAhdwA1QACoPi7hOjciwBTtx6jpdLD7ByRwJaLj3nRhDRglOo9oI1te68BKaYMTkupQXaNex5AtNSXo387UWxQD+p4zUwaoEJW+Di4sbjAqO+4xITU+K+A0piOkBJDInLjltNbAiLUbuLSw7T2WWXXcqrX/3qsu2225att966vOAFLyjPfe5zy8Ybb1z+7u/+rmywwQblqU99ah293mijjcrf//3fl0022aQ8+9nPrtsCLyDmu0p4AbWXv/zlZYcddqi/we3nd8WuHAuBBbfeJz/5yXq8wZqo9AAtl55zA1ABTiGKiHhTiCDSlbcoUy93skgWiDUbYwLTIhk2d7N0FojJ3I4Aqb35eg2YuLi4vdzMCQjIwbnGSLQp4Ui7sRNAwG1HvIC9cLMBJK44rjqM54UvfGFlRIAG8ACiddZZpzz2sY8tj370o8ujHvWo8pjHPKa+fvzjH1/WXnvtom7kk5/85Lrt0572tPL0pz+9POMZz6iA9axnPasWqgR0fgN7ErMKcCK04FokxBADw5oAq6TfYE0BThFzCuYU8SasiR1a2yzdlctfTgv8nwXatet5AlPOjGVvgX5Se90DkxsxtoBBcHtx44ktERJgS3KR5CCJ5wAALjSgRKjAZScuJE6EIQEklY4BCWBZb731KugAoYc97GHlQQ96UC1g/Gd/9md1/PM///PyV3/1V+WhD31o+eu//usKWGuttVb527/92/KEJzyhgtmTnvSkuh8ghXlhT9x8wAlzIo6g4KPYw+gcL+UgNyTmJ16GNZG/A95w64UgAlMkhEhgWvbTfSxPoF/DCUxjeZkn66T6SR2vgZOH1wFMbtRu4GIzqjgQPGAfXHhnnnlmjSkBAPJuTAkoETQACbEh8aLnPOc51S3HXYcB/c3f/E15+MMfXv7iL/6ilue/xz3uUe52t7uVu971rnX0+j73uU9ZffXVywMe8IDywAc+sG774Ac/uALZIx7xiMqwMC374/rzG+JR4k+YmmMhiBBvohB0vGJNKvZjfoAWa3JugDfAiUtvkDuPPcJOkzVb8mxH0QIxF2NMYBrFq5THNCsLxCQeNAYoxSjgL4eJi0t8iejB5MeWxGwIC8SV5BIBAIo78SRMicIOKBEwAAysBig98YlPrKAEWP7yL/+y3P/+9y/3vOc9y53vfOdyhzvcodzudrero9errbZa/ey+971vBSjbagvTsingBuS4+sSqgKCYk2PAmoghKPUcJ3ZHPcidp1wSoOWeBE6D6upxYYY7D3MMYJqVoXOjtMCQLdCv4QSmIRs8dz88C8RkDvBpRzdeYBQPN2M3ZkxC7hI3nmoKcoOo8IItETtwm735zW+uTIX7DigRJ1DZES9gNBqYiRuJJXHRcd9hRHe/+93LHe94x3L729++3Pa2t63g5PVd7nKX+tm97nWvyp7ud7/7VSBrwekhD3lIjUmJU4lZEUe89KUvLTvttFMFSbEmxyexlzsPoMpros6LahBceipCACfxpj75ljsvgWl4czL3PD8LxFqOMYFpfnbMby2hBWLyGgOMANEgMHIT9nBDxhrEYNSb48ZzU6fEo3QjeFDBQeWGAw88sCbGEjpgLEAJSERMicghXHjYkvgRgMGGuPAAEbbUAlPLmu5973tPufb6ONQjH/nICniEEdgZIQRwlKiLxVHoiYEBUjX2MD5xJrX9sCYuvQAn50qlhyWGCII6T5wJYIcdl/BS5k+nBaoFYi7GmMCUE2PZWSAmL1DqAYnizAMYuQFz33lgS+JL2AR2ocqDm7qkVWWG1LALtkQJR3RAGSfOgykBJSxm/fXXry68li2JLQEYgMNlF268ACav73SnO9WYE0bF3WfbcOu14EQcwZ0H/PwmUHQcu+++e5WrS+4FoEQaEWeKShBiTQFO3JUhIW9ZEzsEMLEfW+ZfWmCpLRBrOsYEpqW+Ivn7c7ZATN4ApnDXASQ33QAkLAlD8CAAcIOO+BLRAPGAmzsxAVGBGnZYCXZC8EASLs4DICKuRD1HSUeogC0RMHDjrbHGGoWbjuChBSYuvQAm7jyMihiiBSffDXAKdx5XIbeh35eIG+q8Ns6E6ZG5y8PCAAe1yAiVXrAm6jxAzVYJTHOeevmFIVkg1nSMCUxDMnTudjgWiIlrdGPtQclNNwAJO3Aj9sCW2vgSNR7xABEBMQFRASUeebhyQVgKWTjpNkk4sQNRglwkjEaOEmk40QOlnZgRsJkOmLj3uPNapV6Ak+8CJ4II+7NvwgpgSJYOILkViTHaOBPBBlckAUTbGoN8XG5TSMjbWFMC03DmZe51YRZo17XnCUwLs2d+eyVbIAAp2FLvtmtBSUzJA1vCGMio3bAl1WolEW48ZYck0yo3pGYdsQEwAArUcdxqmFILSlxuYkuk3wCFHJybDvhgSW2MqWdNwInLr3frASjsy779FpHFpptuWrbZZptaDaKNMzlmLkj5TGJlGCDWRKHHpReNBbkunbdYE3Bmj2RMK3nS5s+t0AIJTCs0UW4wyhYIYAqhQwBTMKVgSQFIgv5uyG7MlGrYhP/GdJQNN54qD2I3coXkDMkdkuCqogNwIHQQU+K+w2YClIAIFxxA4cbjpuuBqY0zBWvi0vNowcn3xZ2wL+48ybfiWf/wD/9Qj2VQPlMrgKAwxJoo9Lj0nCchBNdlW+QVSAPvdOWN8iyfvGNLYJq8az5WZzwImCKmJJbUsiSAJMHUgztLjo/8JexCbEaMRuVwLSxUeSB6kDOkuoMadmrbifUACVUdxJS47zAloARESMSxJXEjQEPk0DKmAKZgTcDJNgCsBaeIO3HpEVOoDKGixDOf+cyaPyWXSpyJjF3tvlYAEe0wnBc2SAofrKmtoyfGBqgBU0rGx2pZLPuTSWBa9pdwsk+gB6ZQ37nZYkvBlAKU3IyDLblJu2mLL4nNqItHjceNpy8SV5kCqpR4pNriSoQOwZIwGTEg7jtMCYhQ1mE73HJcdLMBpkHghG152B/Q85vch8ARSAJLoAk8gWifaBtdbrHBnjUB5JCOAyYAnsA02eto1M4+gWnUrkgez5wsMAiYuPHcbAX2uapaUCJ4EGNxc474khpz4ktcYdR4cpdUDid6wEwo4QACAQLmApCwJFUa5CuJKXHfYUoBStgSBgR0sCNM6Ta3uU0de9ZEpRdKvWBO4d6zP0xMFQiJtoQX5OqSfMW+xMDEwkjbgWok2nJNKkbbs6YQQYQ7j21CMs4dyp75lxZYagskMC31FcjfX5AFBgFTy5YwAq47TClAyU2ZQk3cRRxG3yXVHrSR0GsJA1E9nPJNpQWCAwmuj3vc42o8Kdx2AClYkngQVR2mBJSCLQEcQBTABJwCoAgigFY8bBvsCdPy3P78BpehuFafaKt2XyTaal4IXIEs12Swpog1cVvKawp1HnskMC1o+uWXh2SBBKYhGTZ3u3gWaCdpv9cWmATwxZcCmIItUeC1oESZpgyRuItkVPlLWqaTiSvYioFw46mwwI0nb0l8R1xJnhJAEkviZguWJCbE9RZMCfPp2VKAUozBnHrFXgCV0f78jt8lSyeAIMIgXY9EWyINLI9oQw4WkCV9B7jclM4x8pqAcRtnAtqYJbslY+pnV75eKgu0a97zlIsv1ZXI353WAu0k7TfyWSjyxEnCjcc9BZjceFtgUv0AMFGo9cIHLSS4xMSXMBGN/wCAxFbxHXEeQoQApWBJg0AJ48GAgEvPlgKY2jFYVTsCLMwL+IllcSNGoq0Csq0AQs4VtqeUkv5Mn/rUp6rSkHRcwq0yReJpUUOPK5NLk20SmPpZla+X2gLtmk9gWuqrkb8/0ALtJO03GARMgxgTwYMbMTdey5jEYKjYQpEHmFrGRCZOCSeZVoFWAMG11saUAFO48MSGsKUWmIIRtUDUP28BqX1ufwAQIGJsAUy63KoAoZV7VBoPYML+FHTFBMXPSMcTmPqZk69H2QLtmk9gGuUrNcHH1k7S3gwtMPWuPIo8MRSsADCRiFOjYU3cWW0OE5aBbZCKqyZOVKAMkaKpcock1cpbUjm8FTxwswVz6sEpXHkJTP1Vy9dpgZkt0K75BKaZbZWfjqAFpgOmyGEK8UO48wKcJJoSAmASirdqo64Qqv5L3GJk2Lvsskut+EAFJ7GW+EDuEvZCIk4tN4g9RZwpWFMC0whOnDykkbZAAtNIX548uBVZYCZgEjsBTCEXx5qIIIATdx7pNFFALxdX9UGNPAms3GXk4urUkYtzp0X+UisXj7hTKxefjQAiXHqt+659nq68Fc2A/HwcLZDANI5XdYLOyQTu6+SFAAIwcecFOIVLDzhx51HmXX311TXfR0xGrTmSaz2ODjrooPL617++liMigAhlHsm4nCLybUq5YE8SbKPqA9k4hV5IxmcjgGjBqH2ewDRBkzlPdcoCCUxTpsgny9ECLTCpLN5XfgBO1Hnh0ovKD2JN8nkUOVWNW+UH1bl1gw0BRMSZFE1VVZw7T5Ir1qSBXw9OkWgr5kQQwaXHnZfAtBxnVh7zUloggWkprZ+/vWAL9MAUAoi+iGvkNIV8nEIvejGRU0etvGh5MahWHncedZ58ohacogpEWysPawJM3HkJTAu+zLmDCbNAAtOEXfBxO91BwNSypihN1Lr0gBN3njiTvJ5IslVdnABCQVRxpihLtN1229XCqWTjElzVy2sLuVLqRSHXYE0Ra+KKS2Aat1mX5zNsCyQwDdvCuf+hWiCAKeJM3HktawJM0foiXHrEEFHItS1LRJmnpM/JJ59cjjjiiBpnikRbFSCiSWB0rQ3mRKlHECHeREpOqRcVxgFTlCUKocOgsY0rtc8zxjTU6ZM7H1ELJDCN6IXJw5qdBWIC98AUVSAk2wY4RaVxAEUIIc6kgV40CtRkjwBCMdSjjz76Fo0C1cybrlGgxFs9maKtOiGE/CbuPAIIwEQyPgiQ4r0WjNrnCUyzmwe51XhZINZ1jFmSaLyu70ScTUxe4BSMqXXnBTiFSg9AceeJM5GMawuhdI8yPgQQ0ZPp0EMPrVUVVFcgG1cGKJoFRhdbbj2Jt8QQXHpYU8SaEpgmYvrlSQ7BArGmY0xgGoKRc5fDtUBM3kHAFCKIKFMUbj3uPHEmknE15CjzLr744lqaSAUIibZtF1t187jzJNtqgUGhB5yo9CLeFJ1sJd9y51HnEUCoAJGMabhzIPc+XhaINR1jAtN4Xd+xP5uYuMYWmMSZgjUFOHHpxYM7T5yJZFzrcco8NfOivbq+TEceeWRtKaHSuPJE3Hma9BFBUOhpQRHxJqxJrCnceUQQ4kzymQKYVl111Wndea37rn2erryxn8J5ggMs0K5rzxOYBhgp3xpdC7QTeFCcSTuHeGBN4dbjzhNnCsk4ZZ7meq0AQifbt771rbU3k/JEL3/5y8tWW21Vu9luvPHGZcMNN6ztMII1qT7OnacihDgTYFI/Ty4TxpTANLrzKI9stCzQrusEptG6Nnk0s7BAO4EB0yBwaplTsCfxJnEm7R9Ixv1HpmbeeeedV84666xy6qmn1kRb+UyqdytPpM2EauPceViTbrLk40oVqQhBBCHpNuJMBBA9ME0HTi1Lap8nY5rFJMhNxs4C7bpOYBq7yzv+J9RO4JmAqQcnsSZxJoLVmhAAACAASURBVKWJSMYVc9XxlTJPe3IVIFQaV9BV3bzdd9+9NuZTBYI6T8Vx7rwNNtiguvMUeJV0K86kNQYBRALT+M+/PMPhWKBd1wlMw7Fx7nWIFmgncA9ModATb4rcpnDriTUpU6Q/kyrjJOOKuaqZF8o8/Y0OO+ywokOsunk62ooz6YUkp4k7jwhCj6S11167qvPEmSTbymcKYFL9IVx5yZiGOBly12NjgXZdJzCNzWWdrBOJSdwCU3S1BU4BUFhTPMSaCCAil0mVcZJxNfM+9rGP1TbrlHlalh944IG1oy0BxLbbblvjTK07L9R5Em7JxgkgKPM0E1QzL8oSAaUEpsmam3m287NArOkYU/wwPzvmt5bQAjF5jS04BSjFGKBkBEwEEG0u0+WXX14uuuiiogPsGWecUU488cQpZd4b3/jGsvPOO0/Fmbjz5DRx50WciWycAEIVCMCk2ngC0xJOjPzpZWuBdk17nsC0bC9lHnhM5unAKVx6RiIIwKQ30w9+8IPa/iJymXSz/eAHP1hLE1HmabW+99571zbm22+/fe1qq0fTc57znOrOC9m4OBMBBGXegx70oApMkmyTMeXcTAvMzQKxlmNMYJqb/XLrEbJATOIemLj1wrUX4ASYKPMAUyTZfulLX6q5TJ/4xCfKhz70oSllnlbrlHmve93rikRbcSZVIDbddNOyySabTMWZVIEggKDMIxmXZAuYKOsUck1X3ghNljyUkbZArOUYE5hG+nLlwc1kgZjELTAFKAUwhVuPCIIyT/WHa6+9tvZlkmQrlykk46HMU5qIMm+PPfYoO+ywQ40zaR64+eab1waCZOPrrbdeFUCstdZaVZkXwKTKeALTTFctP0sL3NoCsZZjTGC6tY3ynWVigZjExkHgFKBkFGeizGurP0iylct0/vnnV8m4mnmhzNMCQ6XxnXbaqSbaKk+kCkTIxkMAoQKEDrdymVR/SGBaJpMnD3OkLNCuZc8TmEbq8uTBzMcCMakDnGJs2ROXHgFEVH+45ppr6uSXy0Qy/tGPfnRKmadmHmUeAYQKEPozyWcK2bjaefKZJNoSQJCMy2VS/SGBaT5XML8z6RaINRxjAtOkz4gxOP+YzO0Y4BQj1iTO1FZ/+MpXvlJzmaLKuGKumgbqzXTwwQdPCSBe9apX1TiT8kQRZwoBhAoQkcsEmBRyTVfeGEyqPIWVaoF27XqewLRSzZ8/NgwL9JM6XgcoeY09iTMBpuhkq/pD5DKdc845tZutYq5HHXVUVebts88+VQAh0VY+U8SZlCdSN0/bdco8uUySbBOYhnF1c5+TYIFYszEmME3CVV+G5xgTNMb2FOK9FY2AKbYJYOrLEgGmyGXSZl03W8CkmCtgUpqIAEJBV3XzCCB6YJLLBJiUJUrG1F6pfJ4WmJ0FYp3GmMA0O7vlVivZAjFBY2x/Pt5b0RiMydi68jCmqJcXjEn1hzbJ9pBDDqlVxknGW8YUrjylibTAEGMKxhTAlHlM7dXK52mBFVugX8sJTCu2WW6xBBboJ2p7CP1n8TqAKF6H+MH7kWRL/KDCOPGDGFOIH9TLe9/73ldjTMoSHXTQQWWvvfaaSrKNXCY184gfxJiIH5QlamNMxA8BTNFGfdDYVhRvn2d18fZK5/NJsUCs2RgTmCblyi+z84wJGmN7+PFePwYwxRjAZAy5+A033FCbBX77298u5OKXXnpplYt/+MMfLqeffno57rjjpgq5hlxcm/WQi7dlidZdd91ayJVcnCov5OIJTO3VyudpgRVboF/LCUwrtllusQQW6Cdqewj9ZwFExhaM2jym6RJsP/OZz0w1CzzttNOmejK9+c1vrvElbryXvexltyrkGgm20foi8pjakkSDmFK817Kk9nkypvZK5/NJsUC/phOYJuXKj9F5xiQeBEgtGHHfRSHXtohrWyvvkksuKW2tvFDkqZW366671p5MW2+9delr5YUir+1iGyWJdLBVkihAaNDYglH7fD7A5PhJ3oGsVh5KLVEcfuMb36hNEZ0v96UCtlyZSjMBaiDOlvmXFlhqC8SajjGBaamvSP7+nC0QkzeAKVjSdKDkJqzqQ7S9+P73v1+uuuqqctlll1VFHqm4HCbVxeUwiS/tueeeU1UfyMSjuvhGG21UVH2I5FrCB9XFo4ir6uIJTHO+pPmFCbdArOkYE5gmfEIsx9OPydsCU4BSFG01AiQPibXq5EWjwO9973u1USBFXiTXRjkiVR+UI1InLwq4qvjQqvHaRoHiS30/pqUAJtUrkjEtx9mcx8wCsaZjTGDKebHsLGDyBigZMSbA1IISFx5Aigf3VZ/DFK3VCR/El4455piigKvK4q997WtrKSJuvGBLbWt1lcWjgOug1uor05Wnn1QC07KbxnnAjQUCkGJMYGqMk09H3wIxcQOQelCKmFIwJbGliC+Jr0TVBxOfIk9l8TPPPLOccsop5eijj66JteJLauRJquXGC7ak2gPRAzWeUkR6MWl5Qfig6sN97nOfcve7332lu/ISmEZ/3uYRzmyBWNcxJjDNbK/8dMQsYOIGW2pjSyF0aN13AElsKeJLpOLXX399IRW/8sorq+tLLyZNAsWXCB8k1ireqq263CVuPBXFI3eJ6GHttdeuMvGIL2l5QSoOmO52t7slMI3YnMnDGX0LBCDFmMA0+tcsj7CxwGyAifsuQElsKeJLWl60vZhCkafiwwknnFAk1qoq/vrXv77Gl8KNpwSRHkxED8GWyMTFl5Qi0ladIk85olEBJsnDqcprJk4+HWkLBCDFmMA00pcrD663QA9MIXrgwgv3XQATQBJb0lJd8da2e6226mrkUeSp+CCx9h3veEdtEKgMkVYX3HgqPYgtqfSALYktqfYQbryIL62++uq15cVqq6220hiTY3bs4cr79Kc/XStZkIsnMPUzJ1+PsgUCkGJMYBrlq5XHdisLDAKm1o0XoMR9F6BEJi6+JI+nlYpT5OnDpHPtu971rvL2t7+9Ch/kL4kvyV1S6aGPLRE9cOM99KEPrS3V1ci73/3uV9uqA6Y73vGOKyWPKYHpVtMj31imFghAijGBaZleyEk97JmAKUCJGy/YElAiExdf+tnPflZIxb/+9a/XRNQLLrigdq6lyGuFDzvvvHOt9kCNt8kmm9SmgAq2tmwpZOLylwgf7nvf+1Zguutd71qB6Xa3u92MCbaSbtvE2njeJ9hiaRtvvHEFSWAJNFU9B6LHHntsIXPH+pwL16SOvNighX311VfXmoDAWGzN+bMDBslW2KZ4XdwMZjNO6rzL8x6uBfq5l8A0XHvn3hfZAu0EdlMNmXjIw0PsAJjcgIFSANNPf/rT8t3vfrdWRYiW6meddVZV5PXCh5e85CVls802q6KHUOLpvaSVumoP1HgRXwrhA0UeYLnDHe5QFgOYuAsDmLR11xMKaFINasuB5QFVrO/cc8+trsnPfvaztccUccfXvva18q1vfaues9jaT37yk/Lzn/+82oOd2Iz9iEhCUBJja+f2+SJfztxdWqBaoJ1jnicw5cRYVhaICewGGlLxNr7khtuzJflLhA+ASbsL8RdScTdzUnE9mI488sha8UHhVvXxCB/IxFV6CCWeFhdED6qJc+OJL6255ppTwoeFAFOULVIAloiC0g8wYWpiXPpAUQlSC1IN6rALTB27c1CWSC5TsKbLL798IGuKskRAG7NkO67QiNWF0jEAqh3D9sb8SwsspgXaueV5AtNiWjf3NXQLmLRxs3QT7eNLMwETxgCYTHrMopWKU+QdcMABteKDVuqaApKJ67tEideypb/+67+uZYjkL4kvET4Ak8UCJq0zABNm5rcpAoEksFSNgmrQsapSoRU8VSHW5HzEzYgg2pp53/zmN+t5B2sC0lgkAAdOIbEfBFJh6xjjBjL0C50/MFEWiHkVYwLTRF3+5X+yMwFTKxHHCMSXsCWKPC4swPSd73ynApPyPViGrrVu7ocddtgtFHlbbbVVedaznlXjS+uss05tCIgtET2EGy/iS4QPwIRUnCtP1Qcxo2BBM40RW4ptlDNSody+/ZbfJr6gDtR6Y/vtt69Vz/fbb79apYIAQpyJS5I6T8IwtSHgVQtQaw91AfWfEmtqi7myESBnNzEnAAWcWoAKBmVswWn5z6Q8g1GyQABSjAlMo3R18lhWaIHpgCmED+HGi/gSYKLIIxVX9cEN2s0aq3AjV7z1+OOPr1JxrS6UItJ/SWIt4YPcpV70oGgrN578JfGlED4ApujFtFBgsm8uQ8m8WNtznvOcKl9/5StfWZsXEkC87W1vq6INcSYAizUB2xBCKLkUlcZb1sSlGayJcjGYUwtQAVK9mw84uQb5lxZYTAsEIMWYwLSY1s19Dd0CAUz+gw/hQ+QvhRuvZ0sBTNhCVH0QiwFMkcNE5eZmH1JxYgOxHQVbxZZCIh5siauNG09irYoPqoqTii8WMIldUf5xIW6wwQZVtr7llltWGbtySbrrijOJjZ100kn1PMSatIgXO7vwwgunWJNF3rImAA2oMUmsMsCJ/QYxqACnYE0JTEOf5hP3AwFIMSYwTdwUWN4nvCJganOXwo1HIi3oTzJNpXbFFVeUiy++uMqsucHIrrGPN73pTbVGnsaAxAZiO8QHlHiECICiZUtk4hFfCmCKyuILZUxATyxLTb7111+/qD4hr8qxEUAQaYgzcUFifMGaPvKRj9yKNTlfCj2siSrxuuuum5KOsxFwAuYtQLXsKYFpea+Z5XD0AUgxJjAth6uWxzhlARM34h6DGFOwJcF9jABbihwmN2Q3Z+4tcZizzz67tlMnu37LW95SWchOO+1USMWJDbjQxHhCiYctaXFB9IDRhBsvhA9t1YfFACa/h62Rq8tlApbbbLNNFUDsvvvuhesR01MVHWsCsh/60IcqayKEaFlTG2vSOBBrEndjG+DEXi1ABXNqXXrJmKamYT5ZZAsEIMWYwLTIBs7dDdcCswWmli2FVJwqTf04Cahu2mIykVyreKvmgDvssEMVGVDkcaGJL1HHhRJPbIkwIdx44kuEDxR5kmsHMaZVV121tI8QOhhD/BCj72Nf9k+SrvwRuTq3IrCkFiSA2G233Wo+k+MmG8eaTj311KrQ08aDm/L888+v8nGxJqxJV1vALMk4Em4DnIB4y57EnYCT2F0rhogYk+uQf2mBxbJAAFKMCUyLZdncz0qxwFyAKdhSANMPf/jDCkxyfMiqub3czN3Yda3lHiPHViOPIg9T4UrjwgMSEmqxJcKEcOOJL1HRET4sJjDZP7chNyJ3IrciAQS1IHGGRFtAqugsdx7WhzWdfvrplTVhg8Ga5Gy1eU2UiWxBpcjFyT6YE3BqmVMAE9aU7ryVMr0n9kcCkGJMYJrYqbA8T9zE9V97iB/8N+/GKSbiv/xQ44Ubz003pOJuxsr0kFFLRsUs9GEiIIiq4nKY3PzFdAgfMJaWLRE9hBuPTJwbL4CJVFydPFUfWlfedGxpOsaEfXETchsSXWjjTjKubh+1oDgTZqfLbrjzWtZEaRjycQq9yGuKWBMBSEjHKfQIIdgJkLfgFGq9YE1tlQjXIf/SAotlgQCkGBOYFsuyuZ+VYoFBwBRSccH7NncJC3DDDam42Ap1mpbqbthu3ionHHHEEVVIIG7DTUb9JqaDqQAGbCliS8GWqPHCjRfCB4q8QcDUuu765+HCi9H3sS/7x9CILsS5VDcHlur3iYEBUNJ25Ym48yTbYk36SilKq8dUJN1yWwZriqrjRBBcm2JNaugNAicgH+AUrCnjTCtlmk/cjwQgxZjANHFTYHmf8FyBCVsKYMISooCr+At5NfeXqg/7779/TVyVJ4SVaAyIqRA+hBKvZ0vhxsNwQiq+mMAkniW+Jc5FmQcs1e+TaOs4w51HnUcEgflRGAJbMviWNZHHqwaBNbGBfC5ATRAyCJwi3gTssdEEpuW9bkb96AOQYkxgGvUrlsd3CwvMBphCkYcxtcC0IsbENaYPU8uYxHhaNV4wJjLxnjH1rrxw4fUsqX0dTClGwAbk7F88S5KtOBe3orp94kyOjztPTT+9o8jcxcgOPfTQWwkhxNE+/vGP15iaahfcmMGalGcKcJLj1bv12BFrilgTtyl3XgggbnFh8kVaYAEWCECKMYFpAcbMr658C/TAJCjfx5i481pw4s5z0x2kyuP20vJCsqriqL0qT+WFPocpShFxt0U5okGqvBUBU4BROwYw2a/fAYrciWrmceepRoE1EWhog+F4gROXXsuclCoKlR5wijp6XHpUiaHQw5yo9NgGOLWCiIg3YU3AiZ0BU9w8Vv7Vz18cVwvEnIoxgWlcr/SYntcgYPKfvDiTm6ebaOQyhWRcUD8SbNvKD2332rbyg/YSYjlR+UH1hTaXSeyndev1JYm0vQA2cwGmYFEBTPZJZCG2xZ3nGLAm6jyKQcfHpdeCk2oQwEmyMLdeC05tvEnLjyhVRAzCJmJOxCHh2gu1HnAC9GJNPTDFTSTGMZ1yeVorwQIxh2JMYFoJRs+fWDwLmLitKg9jCmAKZZ6baAghgjlx6YmlRBHXqC4uIZVggHjATV3lbsICjCS61xJBAAbMJXKaQgwBPDCnSLKNfkzzBSagRnZufyTj3HlUgVyKRBBq93HpOTZlk4ATIOXWI4YATuJl+jURdYg5UR62FchVvYg6etx6LTiFaw9zEpuLBFz2BP7sHa68uInEuHhXOfc0aRaIORRjAtOkzYBlfr4mbgBTSMbDnResKYApmBNwcoPlzsMMlOdxYyaAIBnn8nrnO99Zqz9wian+oPfRTB1sQ0KOOQEQDIc6r+1gOx/GBJiAm6RdgMedR3wBEFWB4NJrwckxAlExJzlYEm/lN6k+HuCEObXgpAJ5iCEwJ+BErYg5RdypTcDFmtgygWmZL54RPvwApBgTmEb4YuWh3doCAUwBTlGWKFgTd55HD07hzqPMC8m4JFuJqFEv7x3veMctWl+44Ws3waWnCgTmhLUAiGBO3HpYE7GCfKa2LFG45waNbVzJ89hGywyycyAnzqQCBHWeWJNYVwtO3Hok5CpCEESQkZO7K/IqWViOU4AT5gSAVSFX6BUoy28C0GJOAU5qCQInbj0ME2tiO+48jLRlTLe+OvlOWmB+FghAijGBaX52zG8tkQVi4g4CJjEQ/9W7gfbgJN7EndcKILi0oicTdx7XV4ggFErFQkjHlScKcIputlxr+iXJccKaJMRyv7WtLwJsBo0zAZOyRMQU5OhYEyUgAMTSApwApJgTQYRjo9ZT5DXASZV0zIlbL2JOJ5xwQs1xIiOPjreRfBvMKdx6ADxYE/EI1hnAFNdgiaZA/uwYWiDmVIwJTGN4kcf9lExewDQTOIVbLwDKf/zceW62IYAQZ9Iiwo0am5CgSgSx7777VqUb9qFoKneZmE6AUxtzUq4Io8Fswp0XrS+48gKU2ufe64EpXmNMgAnzwsCwJq5CLj1xLeCErQFG+U1yrZROirhTgJM4GbcepaHYGSk59SEAVhmil5FLOo56euoJBmsSawLogJ0tMdO4eYz7PMvzW3kWiDkVYwLTyrN9/tIiWSAm73Tg5ObZsif/6Qvei5VwT7npkktLOOXO49qSkKqTLdYkJ8gNXQKrunQKp7bgJNkVIIRLD2sCHNx5XHAtMEWcaS7ARJknVoU1iTUFOGFOQNDvAUTsSckkwgxMLsoWAScxMjEnggh5TpigmnoqkYs3celxY/a9m6688sqagAu8gzVR6HHnsSHbsrtrkH9pgcWyQKzpGBOYFsuyuZ+VZoGYvDH2zCmUegFOwZ6wJuV3Is4ktkIEIAGVOq9lTeIzEm7lCVG9iTdpO0GqLbaDpchxotTDYqjnuN2wHOIFzKcFpRaY2phSMKpgTOrsEUAAN6wJ0AU42T9mBgQBFFFEMCggickBJ67HqKlHrafUEhaotQfgVYlc/la0yIh27JHj1Cbgcn0SjWCbBBBsSnTC9vmXFlgsC8RajjGBabEsm/tZaRaIyRtjAFOo9AgiPPx3Hw/g5D9+wXyBfUF+PYrcjAkBuLaIIMRhItZEoYdxYB4YiOKuhAZKA4ntAAKAoDoDoOByE2fCdoDLQoCJOw/AASfMCeCJOXEXAii/RXQhviX+5BiwJ8cUlcijQoR4GRk8pZ54EwUiduh8B5UtalkT+TiWyZ0XyrwEppU21Sfmh2Itx5jANDGXfnRPNCZjjCs60tguxnDptQDl5ok5eQRIiZFEnEk+E3ee2IqmgfoXKXyKNXF3UeiJzXDpUbmJNxEWcJNhJGI6WJM4D5ea+A82AzyACWAKNmQMkIr4UvtZvIc1YUzYlu8DJ8wJ0BFVAKhgUAFS3IeEF5HvBCiJIsTDKAoxPXX1nEPEm5xbuPTa/KYo9hoqvejdpCIEYMI4AXwC04pmaH4+VwvEWo4xgWmuFsztF90CMRljnO0PxPYxTgdQwaTcVMWZBPTlM5GNU6OpIcedpTqCWBOBgDYS2AWWgW3IbXKDF2/i0lMaiIRcXlFUIBcDwmgAkzhRCz49MIXrbroxwMl+AqAwKA9A5TdasAJQ2JPYk9p6cp2i6+3WW289VY1cvEk1cqwwVHqK2aqCgTlGfhPWRKEnHkcwgmlS5iUwzXZ25nZzsUCs4RgTmOZivdx2KBaIyRjjbH8ktp9uDKDyOXDi1nNzFcwPd54FIJeHCIKE2k1aV1tJqW7ebuJu5urRideQkHORkWdjTUQHWApAEPshVFgIMAWYtewpQAqLap+3oIVJcfFx62FwAFNreGpCx6t0EZee/CYScio9KkSVyLGmqKeHNUXJoqhCLs7EZglMs52Zud1cLdCv4QSmuVowt190C/STcjF+oN8nkOLWEyfhllITjjvPzZfrSj4PxkCh50ZNucbdRclGpafUj9wgLj0MJFgThR53npwm7jTMBZMBGsGS2rEFnkFsabrPo/lg/x3ve2BR4lvAEUhS6jk2zE7pIm5IsTIASwgh8RYrbGNNkdtERs8mKmRQ57XAROGYrrzFmKG5j9YC/XpNYGqtk8+XxAL9pFyMg+j3GYyJAEKcSUBfVW05O9xWWJOEW/Jp7EGuDzYR4CTehG1w6WEfhBBiTVRwpOPceeJM4j3DAKYekPrXXHzUe9yJM7nzBgGTduwhgtDZdzpgksuUwLQYszP30VugX68JTL2F8vVYWiCASakicSYSaIozjIAI4vLLL68uLEII8nE19FpwisRb0mvMQ+It1qShILEBd56yQdRyRAotYwoW1I49sCz09bCASVuMYEwBTNinG0n+pQUWywIJTItlydzPsrIAYOLKA0xusGIm3HmC+4L8pOPAiXxcvAk4YU7cepiTNhKSVEnIKdywJrlC8pq4zLjOMBUSbvGeAKYWjNrnCwWi/vsJTMtqOubBdhZIYOoMki8nwwIRYyIZF8QXZ+LOw5qwArEm7gPgxJVFBMCtpzoCcKJga1tjYE1iTSTZ3Hlq18kl4koDTJR0YkstGLXPe2BZ6OsEpsmYx+N6lglM43pl87xmtABgks8kRkIAocSOKhBYk1gTlx75uKoHAv+UaaTTZOTASRxGvImEnEoPa4qGgtx5ElvVsCM+kAwbwDQdOC0UiPrvJzDNePnzwxG3QALTiF+gPLzhWAAwcedFBQjuPKxJTpMYirwmzIkYAjjJb5J8S60HnJTvOemkk8rhhx9e5dZiTdttt12VYlO+iTPpciuXiAghgWk41zH3Op4WSGAaz+s60WfVTuowRPtePAdMar1x56liED2auPSAkxp6JOQqHoRr77LLLqvMSQKqEj5yf9ScU0VBXpOEW7lCElpV/FaaKIEprkKOaYHZWSDWaIypypud3XKrEbZATGZj/LXvxfNQ5nHnEUGINZGOq2qAOalwIPEWe+LaA1DYE+Z0wQUX1ORbVSHkNskF4s6TH6R+ntp5lHkSXJULUkoo8pfa2FI8711xC32drry48jkuRwvEGo0xgWk5XsU85mqBmMTtGKZp34vnoczDmoCTnCbghDlx61HqAShxJwCFQQEo4KRskXp6Yk2KoEq65c6jztMSQ+FUyjwVv5UlAhQBQoPGhQJR//0EprjyOS5HC8QajTGBaTlexTzmaoGYxO0Ypmnfi+chgCAbD3DCnIghAJT8Jt1aMSjCCLlOXHzAiSBC8qlYE4WevCbuPA35lPwhgNAGQ6+kBKa4CjmmBWZngVijMSYwzc5uudUIWiAmcTvGYbbvtc+xJuo84KR2XgtQGFSAFHFE5DsBJ+V5sCYli1QgJ4LgzlN/Tpzpmc98Zq1Ppz+SennJmOJK5JgWWLEF2jXqeQLTim2WW4yoBfrJ7HX89Z9533uhzguA6kEqgIqrzwOTwp6wJkIIuU0qkGtTrkyR+nmqQBBAkIxLslUvT+26QS68eK93xS30dbry4srnuBwt0K/XBKbleBXzmKsF+snsdfz1n3nfe4Bp0ANQxQNYxYOCTwxKrpOaeqpCcOepPq4ShEaCmgiqNq7SuCTbBKa4CjmmBWZngX69JjDNzm651QhboJ3UcZjte577G/RebB9jvw13H2k5dx4RhEKvCp6qyq1CNwGERFsVIOQyASbtJ7S+CHY0m3GhjIkKMIq4cidO15NJEdd99tnnFtXFZyrimrXyYmbkOEwL9OsugWmY1s59rxQLtJM6frB9z3N/g96L7WPstwFM4k4tMCnw2gITZR7JuI62owRMjieaBXI3KqMESAGTXKxoe5HAFFc/x6WyQL/uEpiW6krk7460BWKhTAdMlHlu7iEZB0zBmGbjypuORc2XOQ1iTAFM5OwJTCM93Sb+4GK9xZjANPFTIg0wyAKxQGYLTOHKm634IYFpkNXzvUm1QKy3GBOYJnUm5HnPaIFYIIOASYypZ0zTAVNUf5iumOsggArW1H426L3282RMM17O/HDELRDrLcYEphG/YHl4S2OBWCA9MGkk3pQL7QAAIABJREFUOFtgakFpLsDUAs5snycwLc08yV9dHAvEeosxgWlx7Jp7GTMLxAJJYMoOtmM2tUfydGK9xZjANJKXKQ9qqS0QC2QxgallULNlQrPdLhnTUs+Y/P2FWCDWW4wJTAuxZn53bC0QCySBKRnT2E7yETqxWG8xJjCN0MXJQxkdC8QCWSgwrbLKKiUeLWOK57NlRCvaLhnT6MydPJK5WyDWW4wJTHO3YX5jAiwQCySBKRnTBEz3JT/FWG8xJjAt+SXJAxhFC8QCmQ6Yjj/++KkE27YkkTymqC6OFQVbMgZLascVMaHZfp6MaRRnUR7TbC0Q6y3GBKbZWi63mygLxAJpgcliCbk4YDrkkEOK2nODgAlQtKCUwDRR0ydPdo4WiPUWYwLTHA2Ym0+GBWKBDAKmM888s/TAFNXFgzElME3GPMmzXBwLxHqLMYFpceyaexkzC8QCmSswRaPAxQCmcPm17rxB7/k8XXljNgEn7HRivcWYwDRhEyBPd3YWiAUSwPTDH/6wdtUMV15bkogrLxhTAJPGfUCkdecFqLRjCzr983a7/nm/7VyASeddLTuyuvjs5kJuNXwLxHqLMYFp+DbPX1iGFogFslBg6gElXvfAMuh1bDto7LefCzBlP6ZlOCHH/JBjvcWYwDTmFzxPb34WiAUSwKQfk8UyV8Y0CFS81wPLoNfTfXfQ9+cKTNmPaX7zIr81HAvEeosxgWk4ds69LnMLxAJpgUkH2xUBU4gfwpU3HbgMAqL+vfa7/Wf96wSmZT7hJvzwY73FmMA04RMiT3+wBWKBzAaYdLDV9uLJT35yafsxtcDSPu9BZT6vow1GjAlMg69jvrs8LBDrLcYEpuVx3fIoV7IFYoEkMGXlh5U89Sby52K9xZjANJHTIE96RRaIBTIXYNJafSbGNFtmFCxoLmMyphVd0fx8lC0Q6y3GBKZRvlp5bEtmgVggKwKmPfbYo4QrbzkAk0oVVHkpfliyqZU/PMACsd5iTGAaYKR8Ky0QCwQw3XjjjYUqrxc/yAXqgekRj3hEWX311ctd73rXqryba2xpLiyp3Xa2jCmBKef2KFog1luMCUyjeJXymJbcArFAZgtMm266aVlvvfVKAtOSX7o8gGVogVhvMSYwLcOLmIc8fAvEAvnDH/4wxZgsllYuHozpFa94RVkoMLXsZz7PkzENf07kLwzPArHeYkxgGp6tc8/LyAKxIPpxEDAp4qok0XTAtMYaa5TVVlttxiTa+YDPTN+RN3Wve92rPPCBDyzKIj3ucY+rDG7jjTcuW2yxRdlmm23Kq1/96loNPWNMy2hiTsih9usugWlCLnye5swW6BdGvE5gSrn4zDMnP10MC8R6i3EhwPS/pZRV2oOy05tvvrl8+ctfLltttVVZc80163+N6667btlrr73KlVdeObV5HMCgcWqjfJIWWEkWGDQPvTcTMFG2hfihdeUlY1pJFy1/Zmws0K+/BKaxubR5IguxQL8w4nUA03XXXXcrVR5g2n333afk4iF+GBVgeupTn1rSlbeQWZHfXVkWiPUWYwLTyrJ8/s6ytEAPTBdffHE566yzaoxpVIFJkq8YUwLTspxyE3nQAUgxJjBN5DTIk56tBRKYMsY027mS283fAgFIMSYwzd+W+c0JsEACUwLTBEzzJT/FAKQYE5iW/JLkAYyyBRKYEphGeX6Oy7EFIMWYwDQuVzbPYygWSGBKYBrKxMqd3sICAUgxJjDdwjz5Ii1wSwskMCUw3XJG5KthWCAAKcYEpmFYOfc5NhZIYEpgGpvJPMInEoAUYwLTCF+sPLSlt0ACUwLT0s/C8T+CAKQYE5jG/5rnGS7AAglMCUwLmD751VlaIAApxoUAk5/MkkSzNHxutjwtkMCUwLQ8Z+7yOuoApBgTmJbX9cujXckWSGBKYFrJU24ify4AKcYEpomcBnnSs7VAAlMC02znSm43fwsEIMWYwDR/W+Y3J8ACkw5M3/72t2tb+X//938vv/jFL8pNN91U/vjHP5a4gbTjBEyHPMUhWaCdR54nMA3J0Lnb8bDAuAGTauj77rtvbXL4zne+s7z73e8up59+ei1M+0//9E/lk5/8ZPnMZz5TvvjFL5avfe1rBTD98Ic/LD/72c/Kf//3f5ff/OY3tbXNn/70p1uB03hc8TyLpbBAAtNSWD1/c9laYDkCU9/BdvPNNy9bb7117WALmHSw1X23BSZdeQHTBRdccAtguuaaaxKYlu3sXT4HnsC0fK5VHukIWGC5A9Pf//3flwCmV73qVdO2Vk9gGoHJNsGHkMA0wRc/T33uFljuwKRR4HTANIgxceV99rOfnXLltYwpYky6VKcrb+5zKb8xvQUSmKa3TX6SFriVBZYjMM22UWALTJofRoypB6Zrr722DBI/3MpY+UZaYJ4WSGCap+Hya5NpgeUOTJtssknZYostyjbbbFNjTK973etqjEn33aOOOmqg+CGBaTLn+lKedQLTUlo/f3vZWWA5AlOIH7RW74EpxA8zARNV3uWXX15VeVx5GBNVXrjyyMXTlbfspvJIH3AC00hfnjy4UbPAcgam9dZbr4gxzZUxBTB99atfTbn4qE3IMT2eBKYxvbB5WsOxwCQA03vf+96ax/TP//zPU3lMGBNgasUPmcc0nDmWey23yonLBNucFWmBGSwwbsDUuvKIH0488cQyHTBJsE1gmmFy5EeLZoFkTItmytzRJFhguQHTmmuuWcSY/vZv/7aEK6+Xi7/pTW8qhxxyyC3ED30eUxtjysoPkzDTl/YcE5iW1v7568vMAqMETLe5zW1KPG5729uW9nHnO9+53Ote9yqA6WEPe9gUMEmw3WyzzWrlh+23377stttuZe+99y4HH3xwOeKII8rxxx9fTjvttPKhD32onHPOOeX8888vn/70p8tll11WXXlRkuinP/3prUoSLbNLmYc7whZIYBrhi5OHNnoWWE7AdM973nMKmP7mb/6mPPnJTy4bbbRR2XTTTcuLXvSi8spXvrLssssuZc899ywHHHBAOeyww8oxxxxTTj755PL+97+/fPSjHy3nnntuufjii8sXvvCFWkjzm9/8Zvn+979ffvKTnyQwjd70HJsjSmAam0uZJzJMC8RC6YHpoosuqkKBE044oZBci9lsu+225bnPfW55ylOeUh7xiEeU1Vdfvdz1rnedYjfBcgaNLetZ0fP2+/22GBNgesADHlAe+tCHlsc+9rHliU98Ytlwww3LP/zDP5StttqqvPzlLy877rhjef3rX1/e/OY3l7e97W23cud9/OMfLxdeeGH53Oc+V6688sryjW98o3zve98rP/7xj8t//dd/lV//+tdTRVyHaf/c92RZINZbjCl+mKzrn2c7SwvEAvn9739ffvWrX9Vcnq985StlOmB6znOeU4FJ1YVhA1MPSl4HMP3Zn/1ZechDHlIe85jHlHXWWadssMEG5VnPelZ5/vOfX17ykpcU9fJe+9rXVnfeQQcdNMWaTjnllPKBD3ygfOxjH6uFXCXZXnHFFeXqq68u3/3udysw9aq8WZoyN0sLrNACsd5iTGBaoclyg0m0QCyQ6YBJuwgVuoMxzReYWhbk+SDQme699rt3utOdyj3ucY9y//vfv/zVX/1VefSjH13WXnvtIsk26uW9+MUvru68nXfeubzhDW8o++233xRros573/veVz7ykY9Ud544k9YXX//618u//du/lR/96EeVMbVtLyZxXuQ5D8cCsd5iTGAajp1zr8vcArFARhWYWlDyvAemRz7ykeXxj398ZXHPeMYzqqtxyy23LC972cvKa17zmlplnDqPCOLwww8vxx13XBVBUOdx50WcKXKZrrvuunLDDTekK2+Zz+tRPfxYbzEmMI3qlcrjWlILxAKZKzANijGtuuqqpX/0wLLQ14Dp7ne/e1ljjTXKX/7lX9ZYF8n4k570pBpnevazn12e97zn1Zp51HlEEFjT/vvvXw499NDyrne9q4oguPOo8z71qU/VOJMbRHSx/c///M9y4403ZoxpSWfmeP54rLcYE5jG8zrnWS3QArFAWmCyWFYUYwpgustd7nIrMOrByeuFAlJ8/453vGO5293uVuNbf/7nf17Euijz1l133fK0pz2t1swjG3/hC19YRRA77LDDLXozHXnkkbWgK3cedZ6GgZdeemkVQFDmyWX6+c9/PhCYwlaDxgVehvz6hFignzsJTBNy4fM052aBWCjLDZjud7/7lQc96EE1l2mttdaaijNx54mDveAFL6giiGBNb3zjG8uBBx5Y/vEf/7G6897znveUD3/4wzXOpGYeAQRl3g9+8IPyH//xHwlMc5tGufUsLRDrLcYEplkaLjebLAvEAhkETOIwvVy8FT8Ah6VgTKuttlq5733vWx74wAdWZR4BRMSZyMap81SBkNNEOo417bHHHlU6/va3v72686jzJNuKM11yySVVAHHVVVfVXCbARKFIQj+ounjYrB0na9bk2c7XAu2c8TyBab6WzO+NtQVioawImPQ3kse01MB0hzvcoeZO3ec+96lJtg9+8IMLAQR3nnwmsnFVIORbBWvabrvtpipBRBsM6jxxJk0DuS1VgKDMk8ukWeAvf/nLCkxaX4SNZhrHepLkyS2aBfo5lMC0aKbNHY2TBWKhzBeY5BWtssoq9TEothTvRYxormN8P8YApnvf+95FLhMBhDgTd558JrLxpz/96bdgTQB1p512qiII7jzqPExQnEk+EwGEChCKuc4FmMZpHuS5rBwLxHqLMYFp5dg9f2WZWSAWyHICJu5D9fLkMhFAqJkn0fYJT3hClY3/3d/9Xc1pCtakq62EW6xPJQjqvGOPPbacfvrpNZ/pk5/8ZPn85z9fa+ZJsp0tY1pmlzoPdwQsEOstxgSmEbgoeQijZ4FYIMMGpmA8C2VMt7/97WtcS1kiknECCBUgHvWoR9WCrtR5LWui0FOm6BWveEWVjivsyp2nFYY4kzjaeeedV5V5bhLf+c53ikKu//M//1PYZEWuvNG7onlEo2yBWG8xJjCN8tXKY1syC8QCGTVgCiDrR8DEfaj6g5JIBBDiTOHOw5rkNIk1UejJa9LZVpkiCbfq5ynsyp2nqsUZZ5xRNA5UAULNPLlM6uVpr/673/1uKpeJCKJ/hO0GjUt2QfOHR9oC/VxJYBrpy5UHt1QWiIWyHIGJKlAx17/4i7+o7jysiQhCiSIVx+U1EUIQbMhrUnVc/bx99933Fu68s88+uxZ01ZuJZDyqPyhLxC4333xzfWBP7SOAKmzYjkt1PfN3R9sC7RzxPIFptK9XHt0SWSAWylyAyU0fQwEMsxU/BPMJV168nusYjEn1B8o8cSbuvGBNpOMqQRBCqIIe8Sas6aUvfWmtOi6nKRoIcuedddZZtT+TSuMEEJHLRDJ+0003VebEPh4k5B4tWAVAGcOexvxLC/QWaOeH5wlMvYXydVqglKkbabS9uPbaa+ti6Ss/tHJxwKR77FzymAKAFgOYlCVS/YEyjzsPayKCEGtSkYIQ4nGPe1ytBqG7LXCKlhgSbhWkVaJIsi13Htm4fCaJttx5irnqy8SdB5wwJwD129/+toIUF1+AVA9Q7Y0nJ1haoLdAOz8SmHrr5Ou0wP+zQCyUFphW1PaiZUzzTbANoIoRYMVzYwBY/z7GBJgk2RJASLTFmsSaSMf1aJLXRD7eghOXHtZEOq5+nsKu+jRR5733ve+tsnFgrNL4t771rXL99dfXYq5EEMBJ7Tw9mgBUC1ItQPXMKSdZWqC3QKy3GJMx9RbK12mBhjG5wboBY0wzAVM0CgxX3mICUwtCKwImDQoJIII1yWni0tMKg3y8BSduPaxJrElLDCIIhV1VHD/qqKPKqaeeWssTkY3LZxJnYgc18zQNBE4SbluAChYV7AlzEn8KcHLjyb+0QG+BAKQYE5h6C+XrtMAcgUl5nxaYolEghhNJtsaW+fTPW8CZz3OMSSFXgCjOhDWJNZGOc+kFOGFOwFPMiSBCvEm/JtUgSMeJIPRp4s5TBUJ5Iu3W/+Vf/qVWgNBm/Wc/+1lRaVzjQG69AKiWPQ0Cprjp9GNOuLRAPycSmHJOpAUaIOoXyGwY02ID03SNAdv3e/C63e1uV4GJ6II7DzhJtuXSA06YE7cepR5BRLAnSj2sadNNN63ScZUg5DSFO08VCOWJyMbdLOQzkY1LtgVOejQBqBacsCZxJ7ZrGRPb+uttnBMwLdDPiQSmnBNpgQE3y1gocwWmaHvBpQY8gjX1DKl/3QJNC0AzPW+/A5gizoQ1teCEORFkiDkFe4q4U7AmBV5Jx1WCCHeeZNvTTjutVoFQnkicKVpgEEEAJ269Fpy49SLmhDWJ0YUrL4Epl9p0Foj1FmMC03SWyvcnygKxIPpxPsCEoQCGAKYAoRZIZno+ExjN9FmwJiKIFpy49YI9cTMCqDXXXLOyJzEnsSZJtxoJTufOUwVCeaIo6CqnSSWIQeDEpdezppCMm1S9jSdqouXJDrRAPycSmAaaKd+cNAv0CyNe98Ck5bh+ReTUSviQWLeuPIxpKYEJa1LQFThx62FuJOQRdwJQLYMiJceaVIQQJ1MJItx5WmEcf/zx5f3vf3+VjWscSADCnadx4I9+9KMqH+/BiSACOEWuU7AmNvUXto1x0uZanu+tLRBzIcYEplvbKN+ZQAvEguhHwOQmG6q8AKa2H1MPTCF+mAtjmokJzeWzcOkBJ2KIYE/BoFqQotwjisCaSN032WSTWj8v3HmSbbVcV9RVu3Vxpi9/+cu1PJFq42wCnFrmFGo9Lr2WNXHnsa2/3sYTON3ylDsL9HMigakzUL6cTAv0CyNe98DUJ9j2jInibSmBCYgBpxagWpAKJgWogBR2hzVpKKgthkaCgJY6T+28kI1rtw6Uv/SlL1XZuGRblSC49IghgJNGguJNkYAr1hQiiASmyVxXsz3rWG8xJjDN1nK53VhbIBZEP/YJtsGYuPIo1xQ/VWvODX399dev1bwp4LjOuNUCJNqxZUARa2rfm+55bGucbpv2/fhNxxEPIBVAxdVHtUepF+48OU3aYey88861dt5hhx1W3ZZk4xdccEGNMylPRAQBnMjHMSfgREZODEGl17rzgHsC01gvnwWfXL/uEpgWbNLcwThbIIAJM/jqV79a241jDyeddFIteKq+HNfX85///Cq7fuxjH1tl2WI52Al3WjwCFAIkAEcLJCt63gJTPF/Rd6b73G87HsIIMnJ5TXKaQp336le/uji3t771reWYY46pzQNVG1ee6Iorrqi184CTeFO49UJG3rIm7jzqPLLx/uYTr8d5/uS5zc4CMRdiTGCand1yqwm1QA9Mbsy6u6qKIAlVCZ8dd9yxvOhFL6oVu7WXkCfERYY1cZdR6BEheHChYSrAKoBqtgAVYNSO0wHPTO/7vs8BpCoRFHoqkGuLIdl2yy23LNqu77HHHkVn2yOPPLL2aPrIRz5Sonmg2nmY09VXX32rmBMxBHCS2yQ+x53HjqHMi5tPjBM6tfK0GwvEXIgxgakxTj5NC/QWaIGJVJoyTcIpQYAbtioJu+66a63QrSAqEQFlnuKpcoco4LAnzAQIACtAFQCFVQEoILEigGoBKZ7PBECDPmu/5/cck9wmx6yZYMjG1c5zXtEKgzovirpecskl1aWHOVHpXXXVVRWcdLkNt554EyEEEQR1HndeAlM/u/J1WCAAKcYEprBMjmmBARZwQ3VzpT5TK05pHhW3VUSgWDvooIMqs4g4kyoK2kuoMk7x5qaPPRFEiOdQwgGpFqACnFY2MAVjEhNzvKpAEEDobivORDa+1157VVn80UcfXd7znvfUZNvzzz+/ujTlNUm6dRMJcBJz4vaUgKsyBNbEnceOcdPpAWqA2fOtCbNAzI0YE5gmbALk6c7NAgFM4idiKoqZSjbFHo477rgag3HzVgBVq3KusCc+8Ym1ireyPyosAChxHAAQAIVFteDEtTcb1jSIBc3nPSDo9xyD43KslHmaCBJAcE2KnUVn22iFobMt6XiAk15NAU7cemJO1HqAHGui0KPOGwRMc7sSufU4WyAAKcYEpnG+2nluC7aAG6o4CQag7YNuruIsmugpcvqOd7yjuru4vSSnSlKlzsM+CAowEXJs1b2594JBYU8BTmJPWNNSAZNKEIq7YnpPfepTyzOf+cwq5lAFwnnts88+VYGIIYqtnXnmmdWdSaVHpYhFkpETh7ARlx7WRKVHocd+CUwLnopjvYMApBgTmMb6cufJLdQCEWOSp3PNNdfUG7BcJso8N2lxJgIBQgHuPOo8PY404sNA9D+SwBoARZqNPQGDACcCCYKIAKY2DjQfNjTb7/i9NpeJopAyz/GTvwPaHXbYodbOk9OENYk16dMEmMXagjlx6xFEcOmxE9YEzIkgABNlXtx0Ylzotcnvj48FYk7EmMA0Ptc2z2QIFgBMXFH+++emcvMV/OfOcoPGIkiqufPcxPU14goTq3GTx5zkCOkeS2CAmXDvUcKJPRFHcKcRQxBBcLGtLGDyW4QY3IsYnWPkhtxwww2n3HnUebvttltVHyrBJOEWUxRjU5oJOGFO1IqXXXZZFUNweWJN3HniTGJ0CUxDmJxjtMsApBgTmMbo4uapLL4FAphIoCWUWjBuwgQQ4i0YBHfem9/85ur2UjVBMVT5QIQQwEmRVF1jsSfgxLUXbj3KPWII7jxxpqUApkiyJRl3rOJMjl+Pppe97GVVDi/WpO36oYceWsH45JNPrudPQs4WF154YXXpUephTUCcO0+cSbJtAtPiz81x2mMAUowJTON0dfNcFt0CEkOpytxgJZKSR4upEECItUi05c6jznPzlpiKNVG2EUJgH9x6pNgBTsoWYShcelgTpR6XWgggZuuKW+h2QBAgYm2AEmhyP4ozOXbuvK233rrmNIk16dOkuy2XHuGHlhhEIGeffXa1h1p6YnARa1LoFaBT5sllSjXeok/PsdlhAFKMCUxjc2nzRIZhAcAkD0epHXETuUyUefoTiTO5OauMoDyRZNtddtml1prT20jzPUICbj03e+BEYICZcOmJN1HEAQbAFAKIhQLObL/fAhOQFAdzfHKxHLO8rGBNVIfqAspr4tIDxgrZkpADaFUhsCaxJoVeSevZiwuUMo8NE5iGMUPHY58BSDEmMI3Hdc2zWCQLxMKIMYBJrETyKEk0eTQ1mjiTWIsbNBZBIIA1uYlzgamgEOAUzImrjMggWJNYE3eeONNSARPG5jiAJXejY9QGQ7VxrAkDJOxQP08TQUnFWmJoJBjxJiBNCPHZz362CkSibxPRCGVeAtMiTdAx3U2stxgTmMb0Qudpzc8CsTBiBEzcUNRlYiYC++Io3Faf+MQniuKmp5xySr1JYxJYE7GAHCCqtgAnN3mxG2yEuyxYkxwn4gMVGJYSmMjYlVJyXI5PbGyjjTaqIgisybk4J+emhh4lotgathgScrEmgE0EwZ0nJif/SwUI7tBkTPObk5PwrVhvMSYwTcJVz3OctQViYcSoKjZgcnO9/vrra+kdriqliTAEyjTlicRc3KgJBLAKVRPkAYnREENwi7nRc+lhJJgJ1xl3njgTAURIxmfrilvodlx51IDyqbgUxb1I28Odh+URQTh+54E1OS/SeGIP7kusiRBCrIlCj5SeOy8aClLmAfUEpllPwYncMNZbjAlMEzkN8qSns0AsjBh7YJKjY9GoeCDRVuBfh1cuLXEXzfWwJv2MCCG49FSEIIYI1qRYqps/sQHpOFAADoCJZHyhgDPb7wcwAUXH4FgcE3k72TiGF+48lSDUz+OmdG7OMWJNWoCwgeK2Ym9sw0bf/va3K5gDJpL7YEzT2T7fn1wLxHqLMYFpcudCnvkAC8TCiLEFJv/9AyZsACsQ7BdnwhawBuwBiyAQwCrkNZGPu6mL1WAfWAh3HmDCTrCUcQImYE21GJ1uscyeMQ0we7414RaI9RZjAtOET4g8/Vu3+o7FYQxgEsAXL5GfI35CmcdtRY0mziTOItlWnk+484gFuL96d574Dem4eI64jvgOAcJyZ0zY47CAqb0m8Tzn7vhYIK5pjAlM43Nt80zmaYFYDIPGHpgE9PUhEuAX6BfwJ5cmmz722GOLjq+EASpByP0hGHjpS19aRRDq6Cn3I86kb5NaepJtRxWYJAiTu2N7s3HltcC02K68Qddmnpc7vzaCFuivbwLTCF6kPKSVa4F+UbSvW2BS+02pHVJokvFQ5hFAKE9ENn7EEUfUOJPCp6973euqO09sRpyJdFziKik2AYQSQCTag4BpZZQlWlGMaTpgcl7Or48xBTBFjInbM1x5bYwp7DuXqxzface5fD+3HW0LtNfV8wSm0b5eeXQrwQL9omhf98Ck+oNcJtW0lSZSAUIOTwgg1JJTO49qTU4TFRt3HsYRAogAJsq8QcAUoBTjbMUMc91uRcA0nfghgWklTMoJ+4l2zSUwTdjFz9NdsQX6BdICk2TRACbFXEnGFTClRlM3jwBCnIlsXLKtfB/uvO23377GmbbYYoupGnqqQEi01QdJcqsYUxRyDUCKca6AM9vtlxMwrfjK5RbL2QL9ukvGtJyvZh770C0QwKSsDmDSoVW5Haoz6jPBfsq8D37wg1UAIc50+OGH15pyrWxcgqqWGPKZKPPIscmy5TIpB6Qskbp15OIBSDHOFmjmut1iApMKGLN15Q39ouUPLDsLJDAtu0uWB7yUFgBMKmMDJnXfAJPqD/6jC8k4ZZ7+RAQQ4kzhzgvZ+I477lhzgFSB0BJDom1IxpUmUv2hBSYAM2xQ8hsJTEs5s/K3WwskMLXWyOdpgXJLuXhvkAAmFbIBk8KkurTKZSIZp8w799xzi/YPWINE26OPPnpKNr7nnnvWGnOqQERh12c84xm15A/JuIRWwKT1RLS+mCvzme/2g4AJUK4owXaE/jQeAAAgAElEQVRQjCkZUz9z8vVcLJDANBdr5bYTYYF2UfQn3AKTFg5aOahoIJeJZJwyjwCCG0ucSd28QbJxDfeiHUbb4RYwaTmhkOvKBiYdbMW12soPgEnsa6bKDwlM/SzJ1wu1QLsGPc8Y00Itmt9f9hZoF0V/MoDp97//fW12pyeTCuNk0HKZSMZV0yaAEGeSaMudp3lgyMYjziSfaZtttikEEMr8RC6T6g/q5QEm3WT1ZGpdeVx6wYjCvTdojG1mO2JLLTBp9e44BjEmakJsb6aSRMmY+pmTr+digXYNJjDNxXK57dhaoF0U/UkOAibVH+QykYxT5qkPF3Em+UzceW15In2MlCdSN48AQtLq+uuvX9uuq/7QA1MPPAE2/fvt69hmtiNgCleeyuYKya4ImBy/+n+DauUlMPUzJ1/PxQLtGkxgmovlctuxtUC7KPqTVHhUe/Vf/epXtVmghFHVH+QyUeYRQFxyySXVnUc2Tp2HNak2rkeTzrZRBSLymQggQpknl0lZIsAQzQJ7cAkQ8X4LRu3z/juzeW2/yiABJq03uBSpBLnyyNmBp3gYJWFfYVzsjCRepQuuS+dMAMKtKb9LaxAiEQxTk8Ubb7yxaCHCnvFo7d4/769Dvh5vC/TXP11543298+xmYYF2UfSbBzC5sWoWqF6eXKYQQGglzp2HNenPJNk2iroSQWiop7Geoq4qc5ONc+dFnEkxV0m2CrkCiGh9wc3WPwDJbABnLtvoAaVJIVci2bpjUZFCySQ1/QAo16OqFVSF0ZcJa1L9QTJxtL4AytH6QvztqquuqipGohHiES5R4OSBifaPQYDVX498PZ4WaNeg5wlM43md86zmYIF2UfRfa4FJTyY3WSyAOy9YE3UeliCnSe28UOhpB6EVhtI9e++9d022xZrc4FUaV1lh7bXXnlLmSbIVZwIWYk0e8priEUDVMqi5gNCgbf0WpkYVKNFXtXOCDKxJ2aT11lvvFuCktBKXHtekyhYK1kooxhC5MQGzmJscr7YnE9vpawWcMFCPAKkWqHpw6q9Hvh5PC7RrMIFpPK9xntUcLdAuiv6rAUxqvakwTgCh/UWwJiIIbisuPQq9ACdurWggyN3lBh6sSbVxDEQ+k95MGIpeSFgL1kQphzl5AI4AKgA1HTjN160H/IAhUMTauPOwJrEvbI5Lj1CjZU7Aifx9l112qW5KPajkbql8QQACnLk3W3cetsmGwElemMcgkMKienByffJvvC3QrsEEpvG+1nl2s7RAuyj6rwQw6cDKHeUGq5gr1iTWpAoE6XiAE+YUYghVx9u261iTVhh6NGlXTgSBkcgbAgaUcRoGAgrScY8AqRacAqBa5rQQYPI7fleciTsPaxJrUv1crhVwcpyKuipCq0q62n9KLZGOqwuo3QfWRAQRDQPDnUdiD9DF6YATW950000DQSrYUw9O/XXJ1+NlgXYNJjCN17XNsxmCBQKY3Eh/+ctf1hbr8pmwJsm2XHrAKZgTt56YU5QqUtxVNQhCCKyJQo90XE4TEQR3nngOmTZXGpeamA/3mkeAVABU6+LDniLuNBdgim259oCcfWNqfjtYE0GGY8LmgBO3npiT4xUfEyfTzkNVCzUBDz744Mqa9KUKEQR3HtDGLpVzAuzASbxuEEAFg2rBKW5YQ7i0ucsRskBc5xgzxjRCFycPZfQsAJjcKLmg3FCVJsKaxJoo9JQoAk4UaMCJUi8EEWItWmKcdtpptRqEWBOFHtYkTqPPUbjzsBNuNOo87EXSK7AIkJqOPc0VmAKUYgRMXIZ+hzsPa9KGQzWKACfHhtUBUK5H1dHFyLj0xMwIIbAmLksgLNGYfJ5rU7FbeV+AXJwJOAH4AKiWPSUwjd78X1lHFIAUYwLTyrJ8/s7IWSAWgTH+2vc8B0ziHmIi/st3UxVrIoHGAoAT5qRPk4oQBBFYguRbbj3xFmo1QgisiUKP+0slCCIIijduMmKDaLOubh6QAFDTgVMII1pgWnXVVaeVkwcQ9SPWxU2Imfktvw2cMCfg5JhUQJcIjD1F3OnpT396jZNJGg7WBHhVVycdJ4Lg0gTSGCXXJ0AHTsC9ZU/TgVPrzovrk+N4WqBfdwlM43md86xmYYF2McTm7XvxHDD5b94NFGtyU3WDFTcBTtjAddddV9mTuFOULHJTvvDCC2u5Ijdr8nFCAa4vqjbuPDlCGAh3mW62YjyAgVutByfgES49YILt9MAEnFqAitftey04+T6Qw5q4DjE1v0uIIebFvSjxFnsSBwNQQJRbT7xJrAxrArZclSqrSzAmgpDTpGmgZGTMkgsUON1www0V3FtwAvoRd2Lr3p0X1yfH8bRArLUYE5jG8zrnWc3CArEIjPHXvhfPI87EnQecuKECnDAnN1wAJccpAAo4kUurDCG/SW6TUkVEAvJ/9GkSo1HuB/sgGyc44M4DCIPAKWJOwGk2wNSCUjxvQclzwBSsyX79BuaErQFHrkXsCWAGg3Kcj3/842u8iRBCbpOGiMovydsighBb484Tb2MHgE00Asx7cMJCAX4wJ+yUnDwUeu31ieuU43hZINZajAlM43V982zmYIFYBO2Nr30vnkecyX/yAU5upG6o3FJce1gAkBJ7cgOOKuRcelxaYk0UemroHXjggVUEgWkoUURMoGgqNsJ1JsbTg1PEnACHeBOGMxNjCiDqxx6YCCCCNQE7+8bMxJyCPQEoDCriTxiUuJN4E1cklySFnrwmIggJt+Jq1Hmqr4szAWrMkn0GgROwD9aUwDSHSTwmm8ZaizGBaUwubJ7G3C0Qi8AYf+177XP/vXMv+U8+AIrryc0USAWLAlTcfBgUcBJvwpqwB1LqY445plZLIIJQd05xVEICrjExnHDnTQdOACOAiQsO2wEuAKcHoUGvpwMm+7E/4AT0sKcAKWDodzEpbj4synFyP5KQY33EHFigGJpYGncedR51YhtnwipnAiesCfiHO88/Be31ieuU43hZoF1rnicwjdf1zbOZgwXaxRBfa9/z3J/RDTLAqQUo/917uJkCqohDASc3YaWL3Jgp9OQ1EUFQr2kiSJ1HPEA2Ls4UHW2587jOgBMQwFaIErjXAETEmga581rgmQ0w2T5YE3DywMQ8Aqj8TgCW38akHJ8kXA0PAau8JnEzuVrhziP6EGeSfCzOBKiJRTDKFpxCEBGsKYEpZuPkjP26S2CanGufZ9pZoF0M8VH7nuf+jAFMxvYBrOIRgIVVYVFiKXJ4LDKVEPRs4uJSJYE7j8xaKwmycZUVxG2UA1IFAjgRHojvBDhhK1gLBjNdnKkFJs97cOo/n+41sBr0AFx+m1sPayIhFyMjgmjdedR5GKL4WuQzUS5S53HpASexOe5PwMQdyjXauvPYk63jOsQ1ynH8LNCvuwSm8bvGeUaztEC7GOIr7XtxQzS2YNRu077fPsee3GxVPeDOIwJQ4FSZIjdtsRgliiLOpIo3AYTYjRs+cCI2CHAKMUSwpnDn9XGm6YBmtu+3QNZ+J94HVpgUBucYyce581Qfdy4SiFVUp0BUO48LkyszBBDs0bImwBQqvRBBsB0WmsAUs3L8x3ZNeZ7ANP7XPM9wGgv0i2HQa18d9H7/Xv8TbqyUe1R63FhYg5wmLEKbCDk/b3jDGyrLIB4gvSaA0AZD3lALThFv4tIL1hTuPCDRSsZbMJnr8wCfQeMqq6xSPHzm9wAkVsf9qBoE1qfUEtk4NkgAAYSBMVB2o6HMC2Di5hSHCyEE1sRemGYCUz+bxv91v54SmMb/mucZTmOBfjEMeu2rg97v3+t/ogUm7R8AE7eWqgjk1G9729tqPhMBhPiMOI14DQbCnUeSDZwo4Np4E4UcUAh33lIAE3eeY3BsMwFTMKZWMp7A1M+UfD1ojSUw5byYWAv04OL1oL9B2023bXyfqoxrCmMCTBJNzz333JrPpGyPfCZCAVUTQgAR7dap80jHgZPE1jbeFKwp1HmACVBwsfVMZ66MKbbv9+N1MCbb+D3MDTCFKy8YU7jyMKb5AhMBSbryYiZNxtivsQSmybjueZYDLNAvhunAZtB2020bPxPAJJ6iTBFlGoWaigiUeXoYUeZpHSHRVhsMsRruPCwEOGFOqi1EvClUeuI7RBDiTC1j6gElgGauY7+fHpjEtQBTG2MCTFph9MA0W1eeeFy48hKYYhZNztivsQSmybn2eaYLtEC/eGbaXQATBZpacaqOk4zL7TnppJOm6uaFMk+1bgVd5TNR5yn7Q44drAk7IYSQeMudR7INmMi42xhTCypzBaTYvt1H/xwzA0y9+GExgCnEDwlMM82s8fysX1sJTON5nfOshmCBfvHM9BMtMKk8LpdJBQjdbaerAEEAsf7669cWE1xkLWtSEYJKj3ycO0+MhwACMIUrrweWeD3XsQej9vVMwET8sBDGlMA004wa78/6tZXANN7XO89uJVmgX1iAScJoJNkqTaSgq6rbkctEMk6Zpz+TFhIEEOHOkx/EpUc+HqxJrIk7j3S8Byasaa4ANN32LRD1zxOYVtKEmrCf6ddPAtOETYA83eFYoF9YPTB96UtfKhdddNEtKo2TjKs0/prXvGaq0rhkVe48XWOV/CEfJ4SIWBN3HmAS42kZU7jzAMd8HwFUPRi1rxOYhjN/Jn2v/fpJYJr0GZHnvygW6BdWC0wKmAImBU0VNo0k27e+9a1TyjwVugkgFHTlzlMgFWvi0gvWxJ1HOi7OJMZDMq6uHVdeAtOiXMbcyRJZoF8/CUxLdCHyZ8fLAv3CCmBSekcH1yuuuKKWJaJSi2KuasppgUGZpwgqAcQzn/nM6s7TPBBrIoTAmij05DVFnIkAgmR8qYEpCrmGXFyCrcoPIRefiyovY0zjtSbmcjb9+klgmov1ctu0wDQW6BdWD0xaP2g1rkSPXkWSbEnGtSTfbbfdqtRaBQiNA6nzgjUpUyTWFO68iDMRQJCMq1vXliWarxvP92bryiNRx9gwuASmaSZEvj0nC/TrJ4FpTubLjdMCgytB9HYJYFJ25zvf+U758pe/XFutR9NASbbaQxxwwAFVyaYAqgoQWkhQ5xFBBGtq3XlyhyLOFJLxxQammQAKgAEmjC2Bqb/q+Xq+Fkhgmq/l8ntpgf9ngX4Red3/ASZ13wCTGnH+A1SaR/UHSbZymTQN5PaizNMyQgUIxVCp8xR11QojYk3ceQ9/+MNrJQhxJhXHKfPkMiUw9dbP18vNAv2aSsa03K5gHu+SW6BfRIOAKVpf6Duk3YMK4+rlnX/++bWb7amnnlqrjKuZpyW5JnsqJwRrAk7h0lMNgsuMCII6jzuPACKUeYsFTOEGDMbUjqHMS8a05NNvLA+gX1MJTGN5mfOkVoYF2sXU/x5g0ltIzyE9mb72ta/V6g+SbPVlUkfu+OOPn3LnaUuONRFBiDVx6RFCkI9z6a2zzjq1GgTWxIUmn2llAlOAFPVfuvL6q52vF2qBdi15nsC0UIvm9yfWAu1i6o0AmJTW0dZB51b18lR/IBkngPjABz5QTj755Nq3iGycOo8IQrIt6biEW+C0ySab1HiTyuMUesoUUedx54nzkIy39fKC9SxkDBAaNCYw9Vc6Xy+GBdq1lMC0GBbNfUycBfpFNOh1AJNGeFo9KEtEMv6Zz3ymFnP98Ic/XPOZgjXpYbTnnntW6fh2221XwUlX2Oc+97lTuU3BmlSC4M6TaEsyvhTAlKq8iZv2Qz3hfg0lYxqquXPn42iBfhENeh2uPO3Vtb6QZEuZJ870yU9+spxzzjlTrEnOj1jTfvvtV4UQO++8c+0Gu/XWW1cxxLOf/ezaej36NXHnKepKAEEyvlTARCE4W7m4DrZibdP1Y4rW6gQjWcR1HFfNzOfUr6EEppntlZ+mBW5lgX4RDXodjEnbcBXGScYJIC677LLqziMbx5oi1nT44YeXQw45pLr0FEIVb9p2223LC1/4wqmKENGviTtPnElBV5LxxQamcAPO5MqL6uKAacMNN5zqYNsXceW2jEaBCUy3mkr5xv+zQL+GEphyaqQF5miBfhENeh3ApGW46g9uyhoGKk106aWXTrGmD37wg7Xa+Lve9a5y2GGHVfn4XnvtVeNNcptCQh4VIaL9OnWefCaS8QSmOV7A3HzkLNCvoQSmkbtEeUDL0QL9wrr55pvLTTfdVLio5DIRQIgzWXCaBhJByGnSBkOJohNPPLEKIXS2lXQrt2mnnXaqEnKsSaxJbpMCrxJuxZkIICjzovVFz3CC+cx37PfndYgfkjEtx1k6usfcr58EptG9VnlkI2qBdhHFIbbveQ6Yfvvb35Zf/OIXVTJ+7bXX1pp5ZONaYHBvkY5zdZ155plVCKGz7VFHHVXjTbrbqjv36le/ugoh1NGj0FOqiDpP7TwCCMq8qJfXA8l8ASm+1+8vgSmudo6LbYF+/SQwLbaFc39jb4F2EcXJtu+1wKRdOMm4FusqQJCNq5uHNV1yySU14VbFcdUgVB2n0hNvUhFCSwxCCA34oo6eUkXq56mdRwCRwBRXIMflbIF+/SQwLeermce+JBZoF1EcQPue53/84x/L7373u6JiNsm4hoHf//73y7e+9a0qgsCaKPS49M4777zaDgM4qQhxzDHHFJXHFXglJpDb9OIXv7iKICTcqjquCgRVnGKuyZjiKuS4XC3Qr58EpuV6JfO4l8wC7SKKg2jfa4GJ/JkyT5yJVJo6D2uy8CTcEkLobCvehDlJvFVH78gjj5xiTWJNL33pS2tbDP2a1M/Tdp0yTy6TCuN6MvWut3DJzXfs95euvLjaOS62Bfr1k8C02BbO/Y29BdpFFCfbvhfApJCrskQEEEoTcecpT4Q1ff3rX68uPfJx8aYAJ2IILr1gTWJNbVsM6jwlirTCUAFCLlMUcgVAASbzBaP2e7GvdkzxQ1zxHBfTAv36SWBaTOvmvibCAu0iihNu3wtgiiRbAohw52FNYk3f+MY3qktPNQjxJhUhiCE01sOaqPTEmij01NEjguDO069J1XH5Qw972MNqMVct1knGW1ABIB7te3N93gJSPE9giiue42JaoF8/CUyLad3c10RYoF1EccLte57/6U9/KpHLRAChAgR3nioQWJNKEPKaVIPg0hNvIobg0jvrrLNqbpOKEJJuiSB23HHHqs7Tfl1CKwEEZZ5cJtUfIs7EpTfoMR+gCjBqxwSmuOI5LqYF+vWTwLSY1s19TYQF2kUUJ9y+F8AUuUwEEIBJCwzuPDlNYk3BmiTdfuELX6guvQsuuKBWHw93XrTFoM6L9uvymSTaEkBQ5kmyxZrkM2FO/UNbjACrQQDVAo/nwaz6971OYIornuNiWqBfPwlMi2nd3NdEWKBdRHHC7XuDgIkAQpxJeaJw50m4lddEPh6sSayJO0/7ddJx7dfbONPzn//8ms8kzvTYxz62CiBIxqPNOiEE9uQBqAKsenAK8DH2ABSf9e8nMMXVznGxLdCvnwSmxbZw7m/sLdAuojjZ9r0emH71q18VpYnkM5GNS7ZVoog7j0JPgdNgTeTj6ugpVSTOpP36/vvvP9V+XTsMRV0jzqQ0UXSz1QLDA3siiAiQ6sEJ65kJfAYBUrznexhZW/lBbtXmm29e862yVl7MiBznYoF+/SQwzcV6uW1aoJTSLqIwSPteAJMYk+oPJOMhgIg4k5wmIggKPbEmC1FuU7TFiDhTyMaVKHrNa15TVBxXnijiTCqNK+aKNSnoijlphTETQHHrBTgF4Mx2BEzY14qA6eijj64FahdSxJX9xOrYM//G2wL9+klgGu/rnWc3BAu0i2i63Yf4ATCRjAOmiDOFO48I4pprrqmxpnDpRVuMj370o+U973lPbb+ukeDee+9dq0CIM2EnEWdSaVzNPKwJWIg3tQDVsqeWOQ0CptmwqPkCkxsNIM62F9PNmMl+v11TnicwTfZ8yLOfhwXaRTTd1wFT1MsDTJR54kzceaqNU+e1rClcekQQF110UU22Vdz1uOOOKwq7RpxJeSJxpo033rgWdJVoSwCBNakCgTkFQGFPwZxatx7GsxBgmsmVp76fckoUhVp6iJfJ01oRMAFuIpHsxzTdjBrv99s1lcA03tc6z25IFmgX0XQ/EcCkLBFgctMVZ5LPRJ3XsiYKPUKIaIvx6U9/unz84x+vcSaFXfs4k2rj4kwKuqo0/uAHP7iypvvf//61EgSAasGJaw9zAk7BmrjzWoYUz2OczrUH0AKYVJ7oGwX2MabZABPABkxicWylKju7AfZ05U03w8br/XZNJTCN17XNs1lJFmgX0XQ/2QKTjqyASQUI7jzqvGBNpOOEEFx6wCm63J5//vlT+UwqjmMhfZyJ6OAJT3hCTbTFmuQ0YU7cej04YU4EEdR6gKWPMwUgxTgImFZdddUKZj0wRaPAV7ziFVWksRDGFMCkakYC03Sza/zeb9dUAtP4Xd88o5VggXYRTfdzgEkhVzdYwIQNYAU9a6LQC5cecNLlljtP+3XliU477bTap+ktb3lL0UBQ3byXvOQlZbPNNisbbbRRLegq0RZretCDHjQQnMScsKaZgAkQAaVBgBTvBTCF+CEYUwATN+N0jInycDYxpgSm6WbUeL/frqkEpvG+1nl2Q7JAu4im+wnbBDBxTQEmcSasqY01SbgNcIout9R5EWcSpzn22GNrtfF99tmn7LrrrrXl+vOe97waZ3ryk59cE22VJ1JtXI+mljmJOWkmKN7UuvN6xhTgM90IlFZZZZUKXCsCpgMPPLDGmCQJt6q8QcCEPWKR7IJVBjClK2+6mTWe77drKoFpPK9xntWQLdAuoul+qgcmQX033gCn1qUX4BRdbiXcijO5qZ9xxhnlhBNOqHGm/fbbrzYPfOUrX1n7Mz3rWc8qT33qU2tBV6xJUVcsJsApYk7iTS1rEmeaTgAxX2DSyDBceQsBplb8kHLx6WbX+L3frqkEpvG7vnlGK8EC7SKa7udaYArJONYEnHqXnnhTgJOkW24v7TD0adLd9uSTT66dbQ8++OBbxJnaunmqQGgeqOW6pNuePWmPEQAl3tQKIYDUdA/xpPiM8MFzLkFxLCxtnXXWqdL1F7zgBWX77bevBWcdpzwmqkIiDufinDDCkIs7ZyKQnjElME03o8b7/XZNJTCN97XOsxuSBdpFNN1PBDBFkq04U8+awqXnBq0iBHDi7tISQ5xJtfHIZ4o2GOHOE88BBtEGA0BQ6AEoNfQwKMCBRQEp8acHPOABU8KIcO9FMi6w6h8+i4fPuAK99l2szO885SlPKZibyuc77LBDjYOp78f9iO0pSvu5z32ull6St8VtSZEImIASlWKo8oB2AtN0M2q832/XVALTeF/rPLuVaIF+YXlNAAGYxEvEmcRPApyCNXHpyW1SESK63Cruqh1GKxvHmuQGEUFItt1ll12mWq4DBkKIpz3tadW1BywUeVWB/PGPf3wFrLXWWqtIxlUpAmARSwAsaj4gM+jRfwbcvAfsAKDfAYzKJAVboshTreKUU06p4g3gqg6gPK1gS84TGAOlNr70/7V3Ji1+FGEcFo3ijhcVV/ADeBBcQD14ELy4glFBxCXEkzskGojLLSoIIp68CxqNohevgrjrwQ8gfgG9uOFKydPhN9S89mQmmpn+T/+fgaK6equqp6vrN2/V2/WPKOkuvoUNd0Gyqu+PH9guyIOxGNubQH2xIky4POOZx3AeVhPiFEeIiBMdNNZDfuUW7zyGvrA08M47dOjQsKgra+fR6fNTGIgTjhDMN911110NZwiG9m688cbBguEDXFaH4KfYcSvnmycWfsVZgp9mj2jxHRKW1lgYO4bQcS0iyLdUiNKuXbsGbzzW9OObK769wlpiGI8llnCBZ4iSj4oRJeqJGCNKeCnCASZxfICV7uLb+3042tLX90dhOlqCni+BEQL1xarCVK2miFO89CJODOfFO4+FXbGaGA7DdRwPPTp9xAnLiWE9VlrgRwRxPGC5IlzJGVbjI1yG+lglgiWMIlqICVZOhAtLaywgaGMBsbvhhhuGe7Ju3+7duwdRwjGDldBZEZ1yMgSJqPIjiCy3RJ0iSkcawsNaUphGGtjMd9X3R2Ga+QO3eptHoL5MNZ2PbBnOG7Oa4gjRixNzL3jnsbgrVhMdO67jrDiOOOFQgOXEsN6BAweGlcf37NkziAMWFL/bxI8KsuArooE1g2jde++97Z577ml33333sBAsVhbWDmHnzp3/CogagWPZJuZ8hI978k0VH/3yK7uIEvNKuIgfPHhwEFOsJYYk+XCYOmEp9aJEvfFSrNYSIg4z3O1hCFf/5k2gvjsK07yft7XbRAL1ZappOlZChvNiNcURgg65ihNzLwx5YWEwL0PHzpAeP4eB5YQlwjAZczgIwUsvvdRY5BUX7f379w9r6u3bt29wQkCwEI4nnnhiEK5HH310GP5DvBAVBAyHBURsvYBVRuB8ruWeWGwMK/IT8Li0YykhSogov8b7ySefDNYSSy5RJ0SpH75DlOLwkGG8iFK/6oPCtImNeEFuXd8dhWlBHozF2H4E+peplp5jvTD1VlPvCBFxyvdNDOlhNeEowFwTw2CIE5YTnT1LFb377ruDGzlC8Nprrw0ChQWFQDDH8+KLLw7WFN5xiBbDfrhwI15YNwy7RcQQF4RsrdAfZ16L87gWQSKfV155ZSgDYoloIp6UE69COpdYSwzjUbdYSQgSdcfhAVFCrDOEV60lham2rvml+3eJbYVpfs/YGm0Rgf5lqllyrAoTHS4WAR0w4hRnCDrnCBTOAFgWuFSzVBFOA7iP40CABcJK3fzKLQLwzjvvDALF8B4/kYHnHgGxYi4KK4Y5H1Yox92cb4sQMNbeY54KIYuYIWg15HjOQYjY5lqsNfJBHPnWCrFENHtRwrsQy495M+pE3TJ0R517UernlhSm2prmn+7fJYVp/s/bGm4igf5lqtlwLPfa4iYAAArXSURBVOvlZTgvVhPzTWMCheVAx813PREn5mYYCqOTZx09rCesEQSKuSfEgBUiEAYsFuahGE7jhwYRDAK/hvv6668Pnn2IGGLCXBBittHAmn0Ezud67klerB5OGRhq5LekWE6JcmIpIUoM4TE8SZ2oWy9GCDOCVEWJYTyYZX4Jlv7Nm0D/LrGtxTTv523tJiIQYRoTpwhUxCkWFB00HXcvTgzr0bljPUWgGN7DgsrPsbOyAt57iAMBwcKq4hsiPOMIiAcrSWBpMQeEK/fRBgSQa7j+gw8+GPLBwYFhRsqCswbzYgxBUl7KjcNDL0pVjKg7HAhw6UVJYZqo8U6QrcI0AXSzXD4CedHoXKs40fkSeoFK54w4YTkxB8PQF84CWE8RKCwoLBE6f6wSfsMJC4X/MBErAmvtYVkhFgSsGD5yZSgQa4uAmOBUsZHAuX3geu5JPogRQ42UBeGkfAgS5aXcvSjFMurFCOsRDmOipDAtz3uT9yWxFtPyPHtrusUE8pJVcernniJQ6Zx7t3LmnbCe+ACVDj7fOmGF4EyQ9fWwTljuJwHhYmkjhIKAiBGYryLgik5ATDYScj5x7sF9yYe8s6JDxKj3vKMOvccd9atiFCspw3e9IIXhFj86s9tiAnnOiRWmLX4AZrc8BPKS9R1tRKqPI1SJ6agjUFgZY04SEax8A4VwIQgJiBiBFRYSsGD+a8g9EnNv8iJfLLt42/VzSJQdSzBCRL360AtRz6PnFYbL02qWs6Z5zokVpuVsB9Z6CwjkJVsvrp0yaTrtdOIZ8qODz5AfMUNi/fwUQpCAmNWA5fJfQr1Pnya/lIMyxfJL2YmrAPXp9dhswWMyiwUgUNuBwrQAD8UizJNAfdnWSo9ZCJzb76/itda9+v31mmOdTl79fbOPOPv7fdlf962VnmfLsFaVQH3+ClMlZFoCm0Sgf/mSRb+Pbf7qvrF0rp8qHivTkfalnP052Wcsgb5dsK0w2SYksEUE+pcvWfb71tvONYsQr1fWenwRymwZFpdAbS8K0+I+K0s2MwL9y5eq9fvW2841ixCvV9Z6fBHKbBkWl0BtLwrT4j4rSzYzAv3Ll6r1+9bbzjXbIa512Q5ltozTEajtRWGa7lmY85IR6F++VL3ft952rtkOca3LdiizZZyOQG0vCtN0z8KcJSABCUhgxOFHYbJZSEACEpDApAS0mCbFb+YSkIAEJFAJKEyViGkJSEACEpiUgMI0KX4zl4AEJCCBSkBhqkRMS0ACEpDApAQUpknxm7kEJCABCVQCClMlYloCEpCABCYloDBNit/MJSABCUigElCYKhHTEpCABCQwKQGFaVL8Zi4BCUhAApWAwlSJmJaABCQggUkJKEyT4jdzCUhAAhKoBBSmSsS0BCQgAQlMSkBhmhS/mUtAAhKQQCWgMFUipiUgAQlIYFICCtOk+M1cAhKQgAQqAYWpEjEtAQlIQAKTElCYJsVv5hKQgAQkUAkoTJWIaQlIQAISmJSAwjQpfjOXgAQkIIFKQGGqRExLQAISkMCkBBSmSfGbuQQkIAEJVAIKUyViWgISkIAEJiWgME2K38wlIAEJSKASUJgqEdMSkIAEJDApAYVpUvxmLgEJSEAClYDCVImYloAEJCCBSQkoTJPiN3MJSEACEqgEFKZKxLQEJCABCUxKQGGaFL+ZS0ACEpBAJaAwVSKmJSABCUhgUgIK06T4zVwCEpCABCoBhakSMS0BCUhAApMSUJgmxW/mEpCABCRQCShMlYhpCUhAAhKYlIDCNCl+M5eABCQggUpAYapETEtAAhKQwKQEFKZJ8Zu5BCQgAQlUAgpTJWJaAhKQgAQmJbClwnT++ee3448/vl155ZXtySefbF988UXrC/D333+vSufYpITMXAISkIAENp1A+vux+Ouvv27PPPNMu/rqq9sJJ5zQzj333Hbbbbe1zz77rP3++++DblDAem0KfVw2ctKff/7Zvvrqq7Zz586GMHFThGnv3r0rwoQg/fXXX01h6um5LQEJSGB5CFRR6dNoyNNPPz0I044dO7ZOmBAlhWl5GqE1lYAEJACBCNCRNGDThOn2229v55133qqhvC+//HKlUBQuBcN6SmC/fxKQgAQkME8C9PHp79cyTvqhPKaDjtlQ3h133NEuuOCCQZiuuuqq9tRTTw1DeRGjGqegCtM8G6O1koAEJACB3ihhuwa0AYvp2Wefbddcc82xnWO6884724UXXrgyx4Tzw+effz4oJfNQBMQoiklMWmGy8UpAAhKYP4EqSKTRgfgpPPfcc/8SJjTkfzk/xGLqnR8iTGQeIco2cQo6/0diDSUgAQksN4EIUfr9xGgBQ3mxmPqhvC0Rpl6UFKblbqTWXgISWC4CCFE/ahZhIu6F6Zi6i8diqt8xIUCZT+rFKPsolH8SkIAEJDBvAtGCXgfo/0lnjunaa69tcRe/9dZb//93TL0wXXHFFW3Pnj3t008/HcYHGSNM+OOPPxqB9G+//TZsZ5/xYTZykINtwDYwxzbQ6wBzS9QRHeBD2v3796/6jumYC9Pll1/eHn/88fbhhx+2H3/8sf3yyy9D+Omnn9rPP/88BLYNMrAN2AZsA8vRBuj70QJidKHXgo8++mhYLQiP7n6O6Zit/IAZdvHFF7frrruuPfTQQ+35559vL7zwwqowtq+eY3o1M3nIwzZgG5hLG+g14MCBA+3hhx9u119/fbvkkkvaiSeeOHzHdMstt/y/oTw+pOUDW5YkOumkk9rJJ5/czjzzzOHmuJDzfRPhoosuGlzK2WZ/0mwbZGAbsA3YBubXBujnMVaI+74//T+6cc4557SzzjqrnXbaaYN+kL7ppptWpoPii0Dch8zKrblWXoQJjwoCAnXKKacMGZ166qmNQKaEfjv7jA+zkYMcbAO2gTm2gdNPP72dccYZjbivH3qAMYNmMOJGOPvss9vNN9+8cWHq1YptJrC++eab9uCDD7bLLrtsRRVjJfEfENuoIiH7kzY+zEUOcrAN2Abm2gZ6SwlNoJ5VC5LGkrr00kvbfffdN7iR4zBRPfmiQysWU3YQx/3vu+++a6+++mp77LHH2u7du9v9998/3PSBBx5ou3btasTsS0iajNlH2iAD24BtwDYw7zYQDaj9Pmn0AL3AyHnkkUfayy+/3L799tvBc++ohYkLfvjhh/bxxx+3999/v7399tvt4MGD7Y033hjit956a4jZl1D3kTbIwDZgG7ANzLsNvPnmm6t0gOcdXUAzSB86dKi99957DU+977//ftVHubGQanxctZhiNeGLjitg7/oZN/G4BcZdMPuND7vRy0EOtgHbwLK2gehDXMjh8Ouvvw7fNzFVhMbEYqqClPSK80MvUP2w3tiSE7lxbl6vzc2NJSABCUhgXgSO1N/3x3qd6Lf7c9YisyJM/QlcmCWGNipMyZhr/ZOABCQggXkS6IVlI9toQ/Rko/qwpjBxg15s+gKM7U/mG814no/MWklAAhKYN4FeC/rtMV3I8f7YRuiMClMuzE0T5+aJ2c8fMftQxezLPYwlIAEJSGA+BKIHfRxNSJxj1DrbiUMi6T7OsQ0JUzLr49wsGecY+/2TgAQkIIF5EkjfPxb3OhAtqOeFSt2f8zk+Kkz1gmSWuB6v6WRsLAEJSEAC8ydQNWAsHQpjx7Iv5xyVMOXi9eLc3FgCEpCABOZPYD1N4Hj+jnRuzvkHmr/t7A4kAcwAAAAASUVORK5CYII=;" vertex="1" parent="1">
          <mxGeometry x="90" y="221.5" width="62.75" height="63.5" as="geometry" />
        </mxCell>
        <mxCell id="hjvG_84Kh2OcHXy9fUwH-50" value="输入n张图片&lt;br&gt;（n, 1024）" style="text;html=1;align=center;verticalAlign=middle;resizable=0;points=[];autosize=1;strokeColor=none;" vertex="1" parent="1">
          <mxGeometry x="160" y="110" width="80" height="30" as="geometry" />
        </mxCell>
        <mxCell id="hjvG_84Kh2OcHXy9fUwH-51" value="隐藏层1&lt;br&gt;(n, 600)" style="text;html=1;align=center;verticalAlign=middle;resizable=0;points=[];autosize=1;strokeColor=none;" vertex="1" parent="1">
          <mxGeometry x="250" y="155" width="60" height="30" as="geometry" />
        </mxCell>
        <mxCell id="hjvG_84Kh2OcHXy9fUwH-52" value="隐藏层2&lt;br&gt;(n, 100)" style="text;html=1;align=center;verticalAlign=middle;resizable=0;points=[];autosize=1;strokeColor=none;" vertex="1" parent="1">
          <mxGeometry x="330" y="170" width="60" height="30" as="geometry" />
        </mxCell>
        <mxCell id="hjvG_84Kh2OcHXy9fUwH-53" value="输出层2&lt;br&gt;(n, 10)" style="text;html=1;align=center;verticalAlign=middle;resizable=0;points=[];autosize=1;strokeColor=none;" vertex="1" parent="1">
          <mxGeometry x="405" y="180" width="60" height="30" as="geometry" />
        </mxCell>
        <mxCell id="hjvG_84Kh2OcHXy9fUwH-55" value="" style="endArrow=classic;html=1;exitX=1;exitY=0.5;exitDx=0;exitDy=0;entryX=0;entryY=0.5;entryDx=0;entryDy=0;" edge="1" parent="1" source="hjvG_84Kh2OcHXy9fUwH-15" target="hjvG_84Kh2OcHXy9fUwH-20">
          <mxGeometry width="50" height="50" relative="1" as="geometry">
            <mxPoint x="340" y="310" as="sourcePoint" />
            <mxPoint x="390" y="260" as="targetPoint" />
          </mxGeometry>
        </mxCell>
        <mxCell id="hjvG_84Kh2OcHXy9fUwH-56" value="" style="endArrow=classic;html=1;exitX=1;exitY=0.5;exitDx=0;exitDy=0;entryX=0;entryY=0.5;entryDx=0;entryDy=0;" edge="1" parent="1" source="hjvG_84Kh2OcHXy9fUwH-15" target="hjvG_84Kh2OcHXy9fUwH-21">
          <mxGeometry width="50" height="50" relative="1" as="geometry">
            <mxPoint x="350" y="319.9999999999999" as="sourcePoint" />
            <mxPoint x="400" y="269.9999999999999" as="targetPoint" />
          </mxGeometry>
        </mxCell>
        <mxCell id="hjvG_84Kh2OcHXy9fUwH-57" value="" style="endArrow=classic;html=1;exitX=1;exitY=0.5;exitDx=0;exitDy=0;entryX=0;entryY=0.5;entryDx=0;entryDy=0;" edge="1" parent="1" source="hjvG_84Kh2OcHXy9fUwH-15" target="hjvG_84Kh2OcHXy9fUwH-22">
          <mxGeometry width="50" height="50" relative="1" as="geometry">
            <mxPoint x="360" y="329.9999999999999" as="sourcePoint" />
            <mxPoint x="410" y="279.9999999999999" as="targetPoint" />
          </mxGeometry>
        </mxCell>
        <mxCell id="hjvG_84Kh2OcHXy9fUwH-58" value="" style="endArrow=classic;html=1;exitX=1;exitY=0.5;exitDx=0;exitDy=0;entryX=0;entryY=0.5;entryDx=0;entryDy=0;" edge="1" parent="1" source="hjvG_84Kh2OcHXy9fUwH-15" target="hjvG_84Kh2OcHXy9fUwH-23">
          <mxGeometry width="50" height="50" relative="1" as="geometry">
            <mxPoint x="370" y="339.9999999999999" as="sourcePoint" />
            <mxPoint x="420" y="289.9999999999999" as="targetPoint" />
          </mxGeometry>
        </mxCell>
        <mxCell id="hjvG_84Kh2OcHXy9fUwH-59" value="" style="endArrow=classic;html=1;exitX=1;exitY=0.5;exitDx=0;exitDy=0;entryX=0;entryY=0.5;entryDx=0;entryDy=0;" edge="1" parent="1" source="hjvG_84Kh2OcHXy9fUwH-20" target="hjvG_84Kh2OcHXy9fUwH-25">
          <mxGeometry width="50" height="50" relative="1" as="geometry">
            <mxPoint x="380" y="349.9999999999999" as="sourcePoint" />
            <mxPoint x="430" y="299.9999999999999" as="targetPoint" />
          </mxGeometry>
        </mxCell>
        <mxCell id="hjvG_84Kh2OcHXy9fUwH-60" value="" style="endArrow=classic;html=1;exitX=1;exitY=0.5;exitDx=0;exitDy=0;entryX=0;entryY=0.5;entryDx=0;entryDy=0;" edge="1" parent="1" source="hjvG_84Kh2OcHXy9fUwH-20" target="hjvG_84Kh2OcHXy9fUwH-26">
          <mxGeometry width="50" height="50" relative="1" as="geometry">
            <mxPoint x="390" y="359.9999999999999" as="sourcePoint" />
            <mxPoint x="440" y="309.9999999999999" as="targetPoint" />
          </mxGeometry>
        </mxCell>
        <mxCell id="hjvG_84Kh2OcHXy9fUwH-61" value="" style="endArrow=classic;html=1;exitX=1;exitY=0.5;exitDx=0;exitDy=0;entryX=0;entryY=0.5;entryDx=0;entryDy=0;" edge="1" parent="1" source="hjvG_84Kh2OcHXy9fUwH-20" target="hjvG_84Kh2OcHXy9fUwH-27">
          <mxGeometry width="50" height="50" relative="1" as="geometry">
            <mxPoint x="400" y="369.9999999999999" as="sourcePoint" />
            <mxPoint x="450" y="319.9999999999999" as="targetPoint" />
          </mxGeometry>
        </mxCell>
        <mxCell id="hjvG_84Kh2OcHXy9fUwH-62" value="" style="endArrow=classic;html=1;exitX=1;exitY=0.5;exitDx=0;exitDy=0;entryX=0;entryY=0.5;entryDx=0;entryDy=0;" edge="1" parent="1" source="hjvG_84Kh2OcHXy9fUwH-20" target="hjvG_84Kh2OcHXy9fUwH-28">
          <mxGeometry width="50" height="50" relative="1" as="geometry">
            <mxPoint x="410" y="379.9999999999999" as="sourcePoint" />
            <mxPoint x="460" y="329.9999999999999" as="targetPoint" />
          </mxGeometry>
        </mxCell>
        <mxCell id="hjvG_84Kh2OcHXy9fUwH-65" value="" style="endArrow=none;dashed=1;html=1;dashPattern=1 3;strokeWidth=2;" edge="1" parent="1">
          <mxGeometry width="50" height="50" relative="1" as="geometry">
            <mxPoint x="320" y="310" as="sourcePoint" />
            <mxPoint x="320" y="280" as="targetPoint" />
          </mxGeometry>
        </mxCell>
        <mxCell id="hjvG_84Kh2OcHXy9fUwH-66" value="" style="endArrow=none;dashed=1;html=1;dashPattern=1 3;strokeWidth=2;" edge="1" parent="1">
          <mxGeometry width="50" height="50" relative="1" as="geometry">
            <mxPoint x="400" y="320" as="sourcePoint" />
            <mxPoint x="400" y="280" as="targetPoint" />
          </mxGeometry>
        </mxCell>
        <mxCell id="hjvG_84Kh2OcHXy9fUwH-67" value="" style="shape=curlyBracket;whiteSpace=wrap;html=1;rounded=1;flipH=1;rotation=90;" vertex="1" parent="1">
          <mxGeometry x="270" y="350" width="20" height="30" as="geometry" />
        </mxCell>
        <mxCell id="hjvG_84Kh2OcHXy9fUwH-68" value="" style="shape=curlyBracket;whiteSpace=wrap;html=1;rounded=1;flipH=1;rotation=90;size=0.5;" vertex="1" parent="1">
          <mxGeometry x="350" y="340" width="20" height="30" as="geometry" />
        </mxCell>
        <mxCell id="hjvG_84Kh2OcHXy9fUwH-69" value="600个神经元" style="text;html=1;align=center;verticalAlign=middle;resizable=0;points=[];autosize=1;strokeColor=none;" vertex="1" parent="1">
          <mxGeometry x="240" y="380" width="80" height="20" as="geometry" />
        </mxCell>
        <mxCell id="hjvG_84Kh2OcHXy9fUwH-70" value="100个神经元" style="text;html=1;align=center;verticalAlign=middle;resizable=0;points=[];autosize=1;strokeColor=none;" vertex="1" parent="1">
          <mxGeometry x="320" y="370" width="80" height="20" as="geometry" />
        </mxCell>
        <mxCell id="hjvG_84Kh2OcHXy9fUwH-71" value="" style="shape=curlyBracket;whiteSpace=wrap;html=1;rounded=1;flipH=1;rotation=0;size=0.5;" vertex="1" parent="1">
          <mxGeometry x="460" y="210" width="20" height="110" as="geometry" />
        </mxCell>
        <mxCell id="hjvG_84Kh2OcHXy9fUwH-72" value="得到各个&lt;br style=&quot;font-size: 10px;&quot;&gt;数字的概率" style="text;html=1;align=center;verticalAlign=middle;resizable=0;points=[];autosize=1;strokeColor=none;fontSize=10;" vertex="1" parent="1">
          <mxGeometry x="480" y="250" width="70" height="30" as="geometry" />
        </mxCell>
      </root>
    </mxGraphModel>
  </diagram>
</mxfile>
